<svg width="16" height="16" viewBox="0 0 16 16" fill="none" xmlns="http://www.w3.org/2000/svg">
<g clip-path="url(#clip0_18483_25376)">
<path d="M7.99968 15.1673C6.58224 15.1673 5.19664 14.747 4.01809 13.9595C2.83954 13.172 1.92097 12.0528 1.37854 10.7432C0.836113 9.43368 0.694189 7.9927 0.970717 6.60251C1.24724 5.21231 1.9298 3.93533 2.93208 2.93306C3.93436 1.93078 5.21133 1.24822 6.60153 0.971693C7.99173 0.695166 9.43271 0.83709 10.7422 1.37952C12.0518 1.92195 13.1711 2.84052 13.9585 4.01907C14.746 5.19762 15.1663 6.58322 15.1663 8.00065C15.1642 9.90072 14.4085 11.7224 13.0649 13.0659C11.7214 14.4095 9.89975 15.1652 7.99968 15.1673ZM7.99968 1.83399C6.78003 1.83399 5.58776 2.19566 4.57366 2.87326C3.55956 3.55086 2.76916 4.51396 2.30242 5.64077C1.83568 6.76758 1.71356 8.00749 1.9515 9.20371C2.18944 10.3999 2.77676 11.4987 3.63919 12.3611C4.50161 13.2236 5.6004 13.8109 6.79662 14.0488C7.99284 14.2868 9.23275 14.1647 10.3596 13.6979C11.4864 13.2312 12.4495 12.4408 13.1271 11.4267C13.8047 10.4126 14.1663 9.22031 14.1663 8.00065C14.1646 6.36569 13.5143 4.7982 12.3582 3.64211C11.2021 2.48602 9.63464 1.83575 7.99968 1.83399ZM8.49968 11.0007V7.95332C8.49968 7.82071 8.447 7.69354 8.35323 7.59977C8.25946 7.506 8.13229 7.45332 7.99968 7.45332C7.86707 7.45332 7.73989 7.506 7.64612 7.59977C7.55236 7.69354 7.49968 7.82071 7.49968 7.95332V11.0007C7.49968 11.1333 7.55236 11.2604 7.64612 11.3542C7.73989 11.448 7.86707 11.5007 7.99968 11.5007C8.13229 11.5007 8.25946 11.448 8.35323 11.3542C8.447 11.2604 8.49968 11.1333 8.49968 11.0007ZM8.67968 5.66732C8.67968 5.49051 8.60944 5.32094 8.48442 5.19592C8.35939 5.07089 8.18982 5.00065 8.01301 5.00065H8.00634C7.87478 5.00197 7.74655 5.04218 7.6378 5.11623C7.52905 5.19028 7.44464 5.29486 7.3952 5.41678C7.34576 5.53871 7.33351 5.67254 7.35998 5.80142C7.38645 5.9303 7.45046 6.04846 7.54396 6.14103C7.63745 6.2336 7.75625 6.29644 7.88538 6.32162C8.01452 6.34681 8.14822 6.33322 8.26965 6.28258C8.39108 6.23193 8.49481 6.14648 8.56777 6.037C8.64073 5.92751 8.67967 5.79889 8.67968 5.66732Z" fill="#DC6803"/>
</g>
<defs>
<clipPath id="clip0_18483_25376">
<rect width="16" height="16" fill="white"/>
</clipPath>
</defs>
</svg>
