<svg width="24" height="24" viewBox="0 0 24 24" fill="none" xmlns="http://www.w3.org/2000/svg">
<path d="M14.9998 19.7508C14.9012 19.7511 14.8037 19.7317 14.7127 19.694C14.6217 19.6562 14.5391 19.6008 14.4698 19.5308L7.46975 12.5308C7.40009 12.4613 7.34482 12.3786 7.30712 12.2877C7.26941 12.1968 7.25 12.0993 7.25 12.0008C7.25 11.9024 7.26941 11.8049 7.30712 11.7139C7.34482 11.623 7.40009 11.5404 7.46975 11.4708L14.4698 4.47082C14.6119 4.33834 14.8 4.26622 14.9943 4.26965C15.1886 4.27308 15.374 4.35179 15.5114 4.4892C15.6488 4.62661 15.7275 4.812 15.7309 5.0063C15.7344 5.2006 15.6622 5.38865 15.5298 5.53082L9.06075 12.0008L15.5298 18.4708C15.6345 18.5757 15.7058 18.7093 15.7347 18.8547C15.7636 19.0001 15.7488 19.1508 15.692 19.2877C15.6353 19.4247 15.5393 19.5418 15.4161 19.6242C15.2929 19.7066 15.148 19.7507 14.9998 19.7508Z" fill="white"/>
</svg>
