<svg width="24" height="24" viewBox="0 0 24 24" fill="none" xmlns="http://www.w3.org/2000/svg">
<path d="M9.00032 19.7508C8.85208 19.7507 8.7072 19.7066 8.58399 19.6242C8.46077 19.5418 8.36474 19.4247 8.30803 19.2877C8.25132 19.1508 8.23647 19.0001 8.26535 18.8547C8.29424 18.7093 8.36556 18.5757 8.47032 18.4708L14.9393 12.0008L8.47032 5.53082C8.33784 5.38865 8.26571 5.2006 8.26914 5.0063C8.27257 4.812 8.35128 4.62661 8.4887 4.4892C8.62611 4.35179 8.81149 4.27308 9.0058 4.26965C9.2001 4.26622 9.38814 4.33834 9.53032 4.47082L16.5303 11.4708C16.6 11.5404 16.6552 11.623 16.693 11.7139C16.7307 11.8049 16.7501 11.9024 16.7501 12.0008C16.7501 12.0993 16.7307 12.1968 16.693 12.2877C16.6552 12.3786 16.6 12.4613 16.5303 12.5308L9.53032 19.5308C9.46094 19.6008 9.37836 19.6562 9.28738 19.694C9.1964 19.7317 9.09883 19.7511 9.00032 19.7508Z" fill="#252B37"/>
</svg>
