<svg width="16" height="16" viewBox="0 0 16 16" fill="none" xmlns="http://www.w3.org/2000/svg">
<path d="M7.99995 11.3336C7.82315 11.3336 7.65361 11.2633 7.52861 11.1383L2.86195 6.4716C2.74051 6.34587 2.67331 6.17747 2.67483 6.00267C2.67635 5.82787 2.74646 5.66066 2.87007 5.53706C2.99367 5.41345 3.16088 5.34334 3.33568 5.34182C3.51048 5.3403 3.67888 5.4075 3.80461 5.52894L7.99995 9.72427L12.1953 5.52894C12.321 5.4075 12.4894 5.3403 12.6642 5.34182C12.839 5.34334 13.0062 5.41345 13.1298 5.53706C13.2534 5.66066 13.3235 5.82787 13.3251 6.00267C13.3266 6.17747 13.2594 6.34587 13.1379 6.4716L8.47128 11.1383C8.34628 11.2633 8.17674 11.3336 7.99995 11.3336Z" fill="#414651"/>
</svg>
