<svg width="20" height="20" viewBox="0 0 20 20" fill="none" xmlns="http://www.w3.org/2000/svg">
<path d="M9.99987 13.9584C9.91778 13.9586 9.83647 13.9425 9.76065 13.911C9.68483 13.8795 9.61602 13.8333 9.55821 13.775L3.72487 7.9417C3.61447 7.82322 3.55437 7.66652 3.55723 7.5046C3.56008 7.34268 3.62568 7.18819 3.74019 7.07368C3.8547 6.95917 4.00919 6.89358 4.1711 6.89072C4.33302 6.88787 4.48973 6.94797 4.60821 7.05837L9.99987 12.4492L15.3915 7.05837C15.51 6.94797 15.6667 6.88787 15.8286 6.89072C15.9906 6.89358 16.145 6.95917 16.2596 7.07368C16.3741 7.18819 16.4397 7.34268 16.4425 7.5046C16.4454 7.66652 16.3853 7.82322 16.2749 7.9417L10.4415 13.775C10.3837 13.8333 10.3149 13.8795 10.2391 13.911C10.1633 13.9425 10.082 13.9586 9.99987 13.9584Z" fill="#181D27"/>
</svg>
