<svg width="16" height="16" viewBox="0 0 16 16" fill="none" xmlns="http://www.w3.org/2000/svg">
<path d="M14.6669 7.99911C14.6669 8.17592 14.5966 8.34549 14.4716 8.47051C14.3466 8.59554 14.177 8.66577 14.0002 8.66577H3.60953L7.1382 12.1944C7.20187 12.2559 7.25266 12.3295 7.2876 12.4108C7.32254 12.4922 7.34093 12.5797 7.3417 12.6682C7.34247 12.7567 7.3256 12.8445 7.29208 12.9264C7.25856 13.0083 7.20906 13.0828 7.14646 13.1454C7.08387 13.208 7.00943 13.2575 6.9275 13.291C6.84557 13.3245 6.75779 13.3414 6.66927 13.3406C6.58075 13.3398 6.49327 13.3214 6.41193 13.2865C6.33059 13.2516 6.25703 13.2008 6.19553 13.1371L1.52887 8.47044C1.46678 8.40851 1.41752 8.33495 1.38392 8.25395C1.35031 8.17296 1.33301 8.08613 1.33301 7.99844C1.33301 7.91075 1.35031 7.82392 1.38392 7.74293C1.41752 7.66194 1.46678 7.58837 1.52887 7.52644L6.19553 2.85978C6.25703 2.7961 6.33059 2.74531 6.41193 2.71037C6.49327 2.67544 6.58075 2.65704 6.66927 2.65628C6.75779 2.65551 6.84557 2.67237 6.9275 2.70589C7.00943 2.73941 7.08387 2.78892 7.14646 2.85151C7.20906 2.91411 7.25856 2.98854 7.29208 3.07047C7.3256 3.1524 7.34247 3.24019 7.3417 3.32871C7.34093 3.41723 7.32254 3.50471 7.2876 3.58605C7.25266 3.66738 7.20187 3.74094 7.1382 3.80244L3.60953 7.33244H14.0002C14.177 7.33244 14.3466 7.40268 14.4716 7.5277C14.5966 7.65273 14.6669 7.8223 14.6669 7.99911Z" fill="#1570EF"/>
</svg>
