<svg width="10" height="10" viewBox="0 0 10 10" fill="none" xmlns="http://www.w3.org/2000/svg">
<path d="M8.21134 4.46028C8.1332 4.53839 8.02724 4.58227 7.91676 4.58227C7.80627 4.58227 7.70031 4.53839 7.62217 4.46028L5.41676 2.25486V8.74903C5.41676 8.85953 5.37286 8.96551 5.29472 9.04365C5.21658 9.12179 5.1106 9.16569 5.00009 9.16569C4.88958 9.16569 4.7836 9.12179 4.70546 9.04365C4.62732 8.96551 4.58342 8.85953 4.58342 8.74903V2.25486L2.378 4.46028C2.29942 4.53618 2.19417 4.57817 2.08492 4.57722C1.97567 4.57627 1.87117 4.53245 1.79391 4.4552C1.71666 4.37795 1.67284 4.27344 1.67189 4.16419C1.67094 4.05494 1.71294 3.94969 1.78884 3.87111L4.70551 0.954443C4.74421 0.91564 4.79019 0.884854 4.84081 0.863849C4.89143 0.842844 4.9457 0.832031 5.00051 0.832031C5.05531 0.832031 5.10958 0.842844 5.1602 0.863849C5.21082 0.884854 5.2568 0.91564 5.29551 0.954443L8.21217 3.87111C8.29017 3.94936 8.33391 4.05538 8.33375 4.16587C8.33359 4.27635 8.28956 4.38225 8.21134 4.46028Z" fill="#039855"/>
</svg>
