<svg width="24" height="24" viewBox="0 0 24 24" fill="none" xmlns="http://www.w3.org/2000/svg">
<path d="M16.6666 14.6666C16.4898 14.6666 16.3203 14.5963 16.1953 14.4713L11.9999 10.2759L7.80461 14.4713C7.67888 14.5927 7.51048 14.6599 7.33568 14.6584C7.16088 14.6569 6.99367 14.5868 6.87007 14.4632C6.74646 14.3395 6.67635 14.1723 6.67483 13.9975C6.67331 13.8227 6.74051 13.6543 6.86195 13.5286L11.5286 8.86194C11.6536 8.73696 11.8232 8.66675 11.9999 8.66675C12.1767 8.66675 12.3463 8.73696 12.4713 8.86194L17.1379 13.5286C17.2312 13.6218 17.2946 13.7406 17.3203 13.8699C17.346 13.9992 17.3328 14.1332 17.2824 14.255C17.2319 14.3768 17.1465 14.481 17.0369 14.5542C16.9273 14.6275 16.7984 14.6666 16.6666 14.6666Z" fill="#535862"/>
</svg>
