<svg width="24" height="24" viewBox="0 0 24 24" fill="none" xmlns="http://www.w3.org/2000/svg">
<path d="M14.75 7.99906C14.75 8.19797 14.671 8.38874 14.5304 8.52939C14.3897 8.67004 14.1989 8.74906 14 8.74906H10.5C10.3011 8.74906 10.1104 8.67004 9.96971 8.52939C9.82905 8.38874 9.75004 8.19797 9.75004 7.99906C9.75004 7.80015 9.82905 7.60938 9.96971 7.46873C10.1104 7.32808 10.3011 7.24906 10.5 7.24906H14C14.1989 7.24906 14.3897 7.32808 14.5304 7.46873C14.671 7.60938 14.75 7.80015 14.75 7.99906ZM14 11.2491H10.5C10.3011 11.2491 10.1104 11.3281 9.96971 11.4687C9.82905 11.6094 9.75004 11.8001 9.75004 11.9991C9.75004 12.198 9.82905 12.3887 9.96971 12.5294C10.1104 12.67 10.3011 12.7491 10.5 12.7491H14C14.1989 12.7491 14.3897 12.67 14.5304 12.5294C14.671 12.3887 14.75 12.198 14.75 11.9991C14.75 11.8001 14.671 11.6094 14.5304 11.4687C14.3897 11.3281 14.1989 11.2491 14 11.2491ZM14 15.2491H10.5C10.3011 15.2491 10.1104 15.3281 9.96971 15.4687C9.82905 15.6094 9.75004 15.8001 9.75004 15.9991C9.75004 16.198 9.82905 16.3887 9.96971 16.5294C10.1104 16.67 10.3011 16.7491 10.5 16.7491H14C14.1989 16.7491 14.3897 16.67 14.5304 16.5294C14.671 16.3887 14.75 16.198 14.75 15.9991C14.75 15.8001 14.671 15.6094 14.5304 15.4687C14.3897 15.3281 14.1989 15.2491 14 15.2491ZM6.97004 6.96906L6.50004 7.43906C6.35464 7.30736 6.16343 7.23787 5.96741 7.24548C5.77138 7.2531 5.58614 7.33722 5.45141 7.4798C5.31667 7.62239 5.24316 7.81209 5.24665 8.00823C5.25013 8.20438 5.33032 8.39135 5.47004 8.52906L5.97004 9.02906C6.03953 9.09884 6.12213 9.15422 6.21308 9.192C6.30403 9.22978 6.40155 9.24923 6.50004 9.24923C6.59852 9.24923 6.69604 9.22978 6.78699 9.192C6.87794 9.15422 6.96054 9.09884 7.03004 9.02906L8.03004 8.02906C8.16252 7.88688 8.23464 7.69884 8.23121 7.50454C8.22778 7.31024 8.14907 7.12485 8.01166 6.98744C7.87424 6.85002 7.68886 6.77131 7.49456 6.76788C7.30026 6.76446 7.11221 6.83658 6.97004 6.96906ZM6.97004 10.9691L6.49904 11.4391C6.35306 11.3111 6.16315 11.2447 5.96924 11.2539C5.77534 11.263 5.59253 11.347 5.45927 11.4882C5.32601 11.6294 5.25268 11.8167 5.25469 12.0108C5.25669 12.2049 5.33389 12.3907 5.47004 12.5291L5.97004 13.0291C6.03953 13.0988 6.12213 13.1542 6.21308 13.192C6.30403 13.2298 6.40155 13.2492 6.50004 13.2492C6.59852 13.2492 6.69604 13.2298 6.78699 13.192C6.87794 13.1542 6.96054 13.0988 7.03004 13.0291L8.03004 12.0291C8.10372 11.9604 8.16283 11.8776 8.20382 11.7856C8.24481 11.6936 8.26685 11.5943 8.26863 11.4936C8.2704 11.3929 8.25188 11.2929 8.21416 11.1995C8.17644 11.1061 8.12029 11.0212 8.04907 10.95C7.97786 10.8788 7.89302 10.8227 7.79963 10.7849C7.70625 10.7472 7.60622 10.7287 7.50551 10.7305C7.40481 10.7322 7.3055 10.7543 7.2135 10.7953C7.1215 10.8363 7.0387 10.8954 6.97004 10.9691ZM6.97004 14.9691L6.49904 15.4391C6.35306 15.3111 6.16315 15.2447 5.96924 15.2539C5.77534 15.263 5.59253 15.347 5.45927 15.4882C5.32601 15.6294 5.25268 15.8167 5.25469 16.0108C5.25669 16.2049 5.33389 16.3907 5.47004 16.5291L5.97004 17.0291C6.03953 17.0988 6.12213 17.1542 6.21308 17.192C6.30403 17.2298 6.40155 17.2492 6.50004 17.2492C6.59852 17.2492 6.69604 17.2298 6.78699 17.192C6.87794 17.1542 6.96054 17.0988 7.03004 17.0291L8.03004 16.0291C8.10372 15.9604 8.16283 15.8776 8.20382 15.7856C8.24481 15.6936 8.26685 15.5943 8.26863 15.4936C8.2704 15.3929 8.25188 15.2929 8.21416 15.1995C8.17644 15.1061 8.12029 15.0212 8.04907 14.95C7.97786 14.8788 7.89302 14.8227 7.79963 14.7849C7.70625 14.7472 7.60622 14.7287 7.50551 14.7305C7.40481 14.7322 7.3055 14.7543 7.2135 14.7953C7.1215 14.8363 7.0387 14.8954 6.97004 14.9691ZM21.75 11.4991V18.9991C21.7495 19.7282 21.4596 20.4274 20.944 20.943C20.4284 21.4586 19.7292 21.7485 19 21.7491H6.00004C5.49338 21.8078 4.98 21.7512 4.4983 21.5835C4.0166 21.4158 3.57906 21.1414 3.2184 20.7807C2.85774 20.42 2.5833 19.9825 2.4156 19.5008C2.24791 19.0191 2.19131 18.5057 2.25004 17.9991V5.99906C2.19131 5.4924 2.24791 4.97902 2.4156 4.49732C2.5833 4.01563 2.85774 3.57808 3.2184 3.21742C3.57906 2.85676 4.0166 2.58232 4.4983 2.41463C4.98 2.24694 5.49338 2.19034 6.00004 2.24906H14C14.5067 2.19034 15.0201 2.24694 15.5018 2.41463C15.9835 2.58232 16.421 2.85676 16.7817 3.21742C17.1423 3.57808 17.4168 4.01563 17.5845 4.49732C17.7522 4.97902 17.8088 5.4924 17.75 5.99906V9.24906H19.5C20.0965 9.24985 20.6684 9.48716 21.0901 9.90895C21.5119 10.3307 21.7492 10.9026 21.75 11.4991ZM16.55 20.2491C16.3517 19.8623 16.2488 19.4337 16.25 18.9991V5.99906C16.25 4.42206 15.577 3.74906 14 3.74906H6.00004C4.42304 3.74906 3.75004 4.42206 3.75004 5.99906V17.9991C3.75004 19.5761 4.42304 20.2491 6.00004 20.2491H16.55ZM20.25 11.4991C20.2498 11.3002 20.1707 11.1096 20.0301 10.969C19.8895 10.8284 19.6989 10.7493 19.5 10.7491H17.75V18.9991C17.75 19.3306 17.8817 19.6485 18.1162 19.8829C18.3506 20.1174 18.6685 20.2491 19 20.2491C19.3316 20.2491 19.6495 20.1174 19.8839 19.8829C20.1183 19.6485 20.25 19.3306 20.25 18.9991V11.4991Z" fill="white"/>
</svg>
