<svg width="20" height="20" viewBox="0 0 20 20" fill="none" xmlns="http://www.w3.org/2000/svg">
<path d="M8.55833 17.5C8.55883 17.7064 8.49815 17.9083 8.38397 18.0802C8.26979 18.2521 8.10723 18.3863 7.91682 18.4659C7.72641 18.5455 7.51668 18.5668 7.31413 18.5273C7.11158 18.4878 6.92529 18.3891 6.77878 18.2438C6.63227 18.0984 6.53212 17.9129 6.49097 17.7107C6.44982 17.5084 6.46952 17.2986 6.54758 17.1075C6.62565 16.9165 6.75857 16.7529 6.92957 16.6373C7.10056 16.5218 7.30196 16.4595 7.50833 16.4583H7.51667C7.79293 16.4583 8.05789 16.5681 8.25324 16.7634C8.44859 16.9588 8.55833 17.2237 8.55833 17.5ZM14.1833 16.4583H14.175C13.898 16.4594 13.6327 16.5704 13.4374 16.7669C13.2422 16.9633 13.1328 17.2292 13.1333 17.5062C13.1339 17.7833 13.2443 18.0487 13.4404 18.2444C13.6365 18.4401 13.9022 18.55 14.1792 18.55C14.4562 18.55 14.7219 18.4401 14.9179 18.2444C15.114 18.0487 15.2244 17.7833 15.225 17.5062C15.2255 17.2292 15.1162 16.9633 14.9209 16.7669C14.7256 16.5704 14.4603 16.4594 14.1833 16.4583ZM18.0875 7.07667L17.2425 12.215C17.2215 12.5905 17.1237 12.9577 16.9552 13.2939C16.7867 13.6301 16.551 13.9281 16.2627 14.1696C15.9745 14.4111 15.6397 14.5909 15.2792 14.6979C14.9187 14.8049 14.54 14.8368 14.1667 14.7917H7.27833C6.72748 14.7893 6.19573 14.5895 5.77966 14.2285C5.3636 13.8675 5.09081 13.3692 5.01083 12.8242L3.75 4.01917C3.71359 3.77189 3.58989 3.54581 3.40128 3.38181C3.21267 3.21781 2.9716 3.12671 2.72167 3.125H2.5C2.33424 3.125 2.17527 3.05915 2.05806 2.94194C1.94085 2.82473 1.875 2.66576 1.875 2.5C1.875 2.33424 1.94085 2.17527 2.05806 2.05806C2.17527 1.94085 2.33424 1.875 2.5 1.875H2.72167C3.27252 1.87734 3.80427 2.07717 4.22034 2.43819C4.6364 2.79921 4.9092 3.29748 4.98917 3.8425L5.06583 4.375H15.8333C16.169 4.37495 16.5006 4.44866 16.8047 4.59091C17.1088 4.73316 17.3779 4.94047 17.593 5.19819C17.8081 5.45591 17.964 5.75774 18.0496 6.08234C18.1352 6.40694 18.1476 6.74639 18.0875 7.07667ZM16.6325 6C16.535 5.8827 16.4128 5.78831 16.2747 5.7235C16.1366 5.65869 15.9859 5.62506 15.8333 5.625H5.24417L6.24417 12.6475C6.28073 12.8958 6.40527 13.1226 6.59509 13.2868C6.78492 13.4509 7.02739 13.5413 7.27833 13.5417H14.1667C15.5 13.5417 15.8217 13.0417 16.0108 12.0025L16.8558 6.86333C16.8847 6.71187 16.8796 6.5559 16.841 6.40663C16.8024 6.25735 16.7312 6.11849 16.6325 6ZM12.0383 8.03L10.2583 9.81L9.59167 9.14333C9.47385 9.02943 9.316 8.96636 9.15212 8.9677C8.98825 8.96905 8.83146 9.0347 8.71552 9.15053C8.59959 9.26636 8.53378 9.42308 8.53228 9.58696C8.53078 9.75083 8.59371 9.90874 8.7075 10.0267L9.81833 11.1375C9.87638 11.1956 9.94529 11.2417 10.0211 11.2731C10.097 11.3045 10.1783 11.3207 10.2604 11.3207C10.3425 11.3207 10.4238 11.3045 10.4997 11.2731C10.5755 11.2417 10.6445 11.1956 10.7025 11.1375L12.9225 8.91667C12.9806 8.85861 13.0266 8.78969 13.058 8.71384C13.0894 8.63798 13.1056 8.55669 13.1056 8.47458C13.1056 8.39248 13.0894 8.31118 13.058 8.23533C13.0266 8.15948 12.9806 8.09056 12.9225 8.0325C12.8644 7.97444 12.7955 7.92839 12.7197 7.89697C12.6438 7.86555 12.5625 7.84938 12.4804 7.84938C12.3983 7.84938 12.317 7.86555 12.2412 7.89697C12.1653 7.92839 12.0964 7.97444 12.0383 8.0325V8.03Z" fill="#181D27"/>
</svg>
