<svg width="12" height="12" viewBox="0 0 12 12" fill="none" xmlns="http://www.w3.org/2000/svg">
<path d="M8.99953 1.875H8.37453V1.5C8.37453 1.40054 8.33502 1.30516 8.2647 1.23483C8.19437 1.16451 8.09899 1.125 7.99953 1.125C7.90007 1.125 7.80469 1.16451 7.73436 1.23483C7.66404 1.30516 7.62453 1.40054 7.62453 1.5V1.875H4.37453V1.5C4.37453 1.40054 4.33502 1.30516 4.26469 1.23483C4.19437 1.16451 4.09899 1.125 3.99953 1.125C3.90007 1.125 3.80469 1.16451 3.73436 1.23483C3.66404 1.30516 3.62453 1.40054 3.62453 1.5V1.875H2.99953C2.7462 1.84564 2.48951 1.87394 2.24866 1.95778C2.00781 2.04163 1.78904 2.17885 1.60871 2.35918C1.42838 2.53951 1.29116 2.75828 1.20731 2.99913C1.12347 3.23998 1.09517 3.49667 1.12453 3.75V9C1.09517 9.25333 1.12347 9.51002 1.20731 9.75087C1.29116 9.99172 1.42838 10.2105 1.60871 10.3908C1.78904 10.5711 2.00781 10.7084 2.24866 10.7922C2.48951 10.8761 2.7462 10.9044 2.99953 10.875H8.99953C9.25286 10.9044 9.50955 10.8761 9.7504 10.7922C9.99125 10.7084 10.21 10.5711 10.3903 10.3908C10.5707 10.2105 10.7079 9.99172 10.7917 9.75087C10.8756 9.51002 10.9039 9.25333 10.8745 9V3.75C10.9039 3.49667 10.8756 3.23998 10.7917 2.99913C10.7079 2.75828 10.5707 2.53951 10.3903 2.35918C10.21 2.17885 9.99125 2.04163 9.7504 1.95778C9.50955 1.87394 9.25286 1.84564 8.99953 1.875ZM2.99953 2.625H3.62453V3C3.62453 3.09946 3.66404 3.19484 3.73436 3.26517C3.80469 3.33549 3.90007 3.375 3.99953 3.375C4.09899 3.375 4.19437 3.33549 4.26469 3.26517C4.33502 3.19484 4.37453 3.09946 4.37453 3V2.625H7.62453V3C7.62453 3.09946 7.66404 3.19484 7.73436 3.26517C7.80469 3.33549 7.90007 3.375 7.99953 3.375C8.09899 3.375 8.19437 3.33549 8.2647 3.26517C8.33502 3.19484 8.37453 3.09946 8.37453 3V2.625H8.99953C9.78803 2.625 10.1245 2.9615 10.1245 3.75V4.125H1.87453V3.75C1.87453 2.9615 2.21103 2.625 2.99953 2.625ZM8.99953 10.125H2.99953C2.21103 10.125 1.87453 9.7885 1.87453 9V4.875H10.1245V9C10.1245 9.7885 9.78803 10.125 8.99953 10.125Z" fill="#535862"/>
<path d="M6.58897 7.48982L7.39026 6.68799C7.46252 6.61044 7.50186 6.50787 7.49999 6.40188C7.49813 6.2959 7.45519 6.19478 7.38024 6.11982C7.30528 6.04487 7.20416 6.00193 7.09818 6.00006C6.99219 5.99819 6.88962 6.03753 6.81207 6.1098L6.01023 6.91109L5.2084 6.1098C5.13085 6.03753 5.02828 5.99819 4.92229 6.00006C4.81631 6.00193 4.71519 6.04487 4.64023 6.11982C4.56528 6.19478 4.52234 6.2959 4.52047 6.40188C4.5186 6.50787 4.55794 6.61044 4.63021 6.68799L5.4315 7.48982L4.63021 8.29166C4.59001 8.32911 4.55778 8.37428 4.53542 8.42446C4.51306 8.47464 4.50103 8.52881 4.50006 8.58374C4.49909 8.63867 4.5092 8.69323 4.52977 8.74417C4.55035 8.79511 4.58098 8.84139 4.61982 8.88024C4.65867 8.91908 4.70494 8.94971 4.75588 8.97028C4.80682 8.99086 4.86139 9.00096 4.91632 8.99999C4.97125 8.99903 5.02542 8.987 5.0756 8.96464C5.12578 8.94228 5.17095 8.91004 5.2084 8.86985L6.01023 8.06856L6.81207 8.86985C6.88962 8.94211 6.99219 8.98146 7.09818 8.97959C7.20416 8.97772 7.30528 8.93478 7.38024 8.85983C7.45519 8.78487 7.49813 8.68375 7.49999 8.57777C7.50186 8.47178 7.46252 8.36921 7.39026 8.29166L6.58897 7.48982Z" fill="#535862"/>
</svg>
