<svg width="20" height="20" viewBox="0 0 20 20" fill="none" xmlns="http://www.w3.org/2000/svg">
<path d="M9.99984 1.04102C8.22805 1.04102 6.49605 1.56641 5.02286 2.55077C3.54967 3.53512 2.40146 4.93422 1.72342 6.57114C1.04539 8.20807 0.867981 10.0093 1.21364 11.747C1.5593 13.4848 2.4125 15.081 3.66534 16.3338C4.91819 17.5867 6.51441 18.4399 8.25216 18.7856C9.9899 19.1312 11.7911 18.9538 13.428 18.2758C15.065 17.5977 16.4641 16.4495 17.4484 14.9763C18.4328 13.5031 18.9582 11.7711 18.9582 9.99935C18.9555 7.62426 18.0109 5.34721 16.3314 3.66777C14.652 1.98833 12.3749 1.04366 9.99984 1.04102ZM9.99984 17.7077C8.47528 17.7077 6.98495 17.2556 5.71732 16.4086C4.44969 15.5616 3.4617 14.3577 2.87827 12.9492C2.29484 11.5407 2.14219 9.9908 2.43962 8.49553C2.73705 7.00026 3.4712 5.62676 4.54923 4.54873C5.62726 3.4707 7.00075 2.73656 8.49602 2.43913C9.99129 2.1417 11.5412 2.29435 12.9497 2.87778C14.3582 3.4612 15.5621 4.4492 16.4091 5.71683C17.2561 6.98446 17.7082 8.47478 17.7082 9.99935C17.706 12.043 16.8931 14.0024 15.448 15.4475C14.0029 16.8926 12.0435 17.7055 9.99984 17.7077ZM12.9415 12.0577C13.0029 12.1149 13.0522 12.1839 13.0863 12.2606C13.1205 12.3372 13.1389 12.42 13.1403 12.5039C13.1418 12.5878 13.1264 12.6712 13.0949 12.749C13.0635 12.8268 13.0167 12.8975 12.9574 12.9569C12.898 13.0162 12.8273 13.063 12.7495 13.0945C12.6717 13.1259 12.5883 13.1413 12.5044 13.1398C12.4205 13.1384 12.3377 13.12 12.2611 13.0858C12.1844 13.0517 12.1154 13.0024 12.0582 12.941L9.55818 10.441C9.50001 10.3831 9.45387 10.3143 9.42241 10.2385C9.39094 10.1627 9.37478 10.0814 9.37484 9.99935V5.83268C9.37484 5.66692 9.44069 5.50795 9.5579 5.39074C9.67511 5.27353 9.83408 5.20768 9.99984 5.20768C10.1656 5.20768 10.3246 5.27353 10.4418 5.39074C10.559 5.50795 10.6248 5.66692 10.6248 5.83268V9.74018L12.9415 12.0577Z" fill="#535862"/>
</svg>
