<svg width="12" height="12" viewBox="0 0 12 12" fill="none" xmlns="http://www.w3.org/2000/svg">
<path d="M6.70728 6.00028L9.35379 3.35378C9.40154 3.30766 9.43963 3.25249 9.46584 3.19149C9.49204 3.13048 9.50583 3.06488 9.50641 2.99849C9.50699 2.9321 9.49434 2.86626 9.4692 2.80481C9.44406 2.74336 9.40693 2.68753 9.35998 2.64059C9.31304 2.59364 9.25721 2.55651 9.19576 2.53137C9.13431 2.50623 9.06847 2.49358 9.00208 2.49416C8.93569 2.49474 8.87008 2.50853 8.80908 2.53473C8.74808 2.56094 8.69291 2.59903 8.64678 2.64678L6.00028 5.29328L3.35378 2.64678C3.25948 2.55571 3.13318 2.50531 3.00208 2.50645C2.87099 2.50759 2.74558 2.56017 2.65288 2.65288C2.56017 2.74558 2.50759 2.87099 2.50645 3.00208C2.50531 3.13318 2.55571 3.25948 2.64678 3.35378L5.29328 6.00028L2.64678 8.64678C2.59903 8.69291 2.56094 8.74808 2.53473 8.80908C2.50853 8.87008 2.49474 8.93569 2.49416 9.00208C2.49358 9.06847 2.50623 9.13431 2.53137 9.19576C2.55651 9.25721 2.59364 9.31304 2.64059 9.35998C2.68753 9.40693 2.74336 9.44406 2.80481 9.4692C2.86626 9.49434 2.9321 9.50699 2.99849 9.50641C3.06488 9.50583 3.13048 9.49204 3.19149 9.46584C3.25249 9.43963 3.30766 9.40154 3.35378 9.35379L6.00028 6.70728L8.64678 9.35379C8.74109 9.44486 8.86739 9.49526 8.99849 9.49412C9.12958 9.49298 9.25499 9.4404 9.34769 9.34769C9.4404 9.25499 9.49298 9.12958 9.49412 8.99849C9.49526 8.86739 9.44486 8.74109 9.35379 8.64678L6.70728 6.00028Z" fill="#D92D20"/>
</svg>
