<svg width="20" height="20" viewBox="0 0 20 20" fill="none" xmlns="http://www.w3.org/2000/svg">
<rect width="20" height="20" rx="4" fill="#FAFAFA"/>
<path d="M15.25 6.0625H13.1739C12.6489 6.0625 12.6262 5.996 12.4821 5.56434L12.3654 5.21025C12.2787 4.94848 12.1116 4.72077 11.8878 4.55957C11.6641 4.39836 11.3952 4.3119 11.1194 4.3125H8.88058C8.60502 4.31215 8.33637 4.39872 8.11287 4.55991C7.88937 4.72109 7.72241 4.94867 7.63575 5.21025L7.51908 5.56434C7.375 5.996 7.35225 6.0625 6.82725 6.0625H4.75C4.63397 6.0625 4.52269 6.1086 4.44064 6.19064C4.35859 6.27269 4.3125 6.38397 4.3125 6.5C4.3125 6.61604 4.35859 6.72732 4.44064 6.80936C4.52269 6.89141 4.63397 6.9375 4.75 6.9375H5.50833L5.95575 13.6458C5.9501 13.9277 6.00384 14.2076 6.11346 14.4673C6.22307 14.727 6.38612 14.9607 6.59201 15.1533C6.79789 15.3459 7.04199 15.493 7.30845 15.585C7.5749 15.677 7.85774 15.712 8.13858 15.6875H11.8637C12.1446 15.712 12.4274 15.677 12.6939 15.585C12.9603 15.493 13.2044 15.3459 13.4103 15.1533C13.6162 14.9607 13.7793 14.727 13.8889 14.4673C13.9985 14.2076 14.0522 13.9277 14.0466 13.6458L14.4917 6.9375H15.25C15.366 6.9375 15.4773 6.89141 15.5594 6.80936C15.6414 6.72732 15.6875 6.61604 15.6875 6.5C15.6875 6.38397 15.6414 6.27269 15.5594 6.19064C15.4773 6.1086 15.366 6.0625 15.25 6.0625ZM8.46583 5.48675C8.49468 5.39958 8.5503 5.32372 8.62477 5.26999C8.69924 5.21626 8.78876 5.1874 8.88058 5.1875H11.1194C11.2112 5.1874 11.3008 5.21626 11.3752 5.26999C11.4497 5.32372 11.5053 5.39958 11.5342 5.48675L11.6508 5.84084C11.6759 5.91725 11.7022 5.99134 11.7302 6.0625H8.26808C8.29608 5.99075 8.32233 5.91667 8.34742 5.84084L8.46583 5.48675ZM13.1722 13.5869C13.1849 13.7585 13.1591 13.9307 13.0965 14.091C13.034 14.2512 12.9363 14.3954 12.8107 14.513C12.685 14.6305 12.5346 14.7183 12.3706 14.7701C12.2065 14.8218 12.0329 14.8361 11.8626 14.8119H8.13742C7.96709 14.8361 7.79351 14.8218 7.62944 14.7701C7.46537 14.7183 7.31498 14.6305 7.18934 14.513C7.06371 14.3954 6.96601 14.2512 6.90345 14.091C6.84089 13.9307 6.81505 13.7585 6.82783 13.5869L6.38333 6.9375H6.82492C6.89783 6.9375 6.95792 6.92992 7.02383 6.92525C7.04331 6.9309 7.06321 6.935 7.08333 6.9375H12.9167C12.9364 6.93494 12.9559 6.93084 12.975 6.92525C13.0409 6.92992 13.101 6.9375 13.1739 6.9375H13.6167L13.1722 13.5869ZM11.6042 9.41667V12.3333C11.6042 12.4494 11.5581 12.5606 11.476 12.6427C11.394 12.7247 11.2827 12.7708 11.1667 12.7708C11.0506 12.7708 10.9394 12.7247 10.8573 12.6427C10.7753 12.5606 10.7292 12.4494 10.7292 12.3333V9.41667C10.7292 9.30064 10.7753 9.18936 10.8573 9.10731C10.9394 9.02526 11.0506 8.97917 11.1667 8.97917C11.2827 8.97917 11.394 9.02526 11.476 9.10731C11.5581 9.18936 11.6042 9.30064 11.6042 9.41667ZM9.27083 9.41667V12.3333C9.27083 12.4494 9.22474 12.5606 9.14269 12.6427C9.06065 12.7247 8.94937 12.7708 8.83333 12.7708C8.7173 12.7708 8.60602 12.7247 8.52397 12.6427C8.44193 12.5606 8.39583 12.4494 8.39583 12.3333V9.41667C8.39583 9.30064 8.44193 9.18936 8.52397 9.10731C8.60602 9.02526 8.7173 8.97917 8.83333 8.97917C8.94937 8.97917 9.06065 9.02526 9.14269 9.10731C9.22474 9.18936 9.27083 9.30064 9.27083 9.41667Z" fill="#D92D20"/>
</svg>
