<svg width="20" height="20" viewBox="0 0 20 20" fill="none" xmlns="http://www.w3.org/2000/svg">
<path d="M12.2919 6.66588C12.2919 6.83164 12.226 6.99061 12.1088 7.10782C11.9916 7.22503 11.8326 7.29088 11.6669 7.29088H8.75019C8.58443 7.29088 8.42546 7.22503 8.30825 7.10782C8.19104 6.99061 8.12519 6.83164 8.12519 6.66588C8.12519 6.50012 8.19104 6.34115 8.30825 6.22394C8.42546 6.10673 8.58443 6.04088 8.75019 6.04088H11.6669C11.8326 6.04088 11.9916 6.10673 12.1088 6.22394C12.226 6.34115 12.2919 6.50012 12.2919 6.66588ZM11.6669 9.37422H8.75019C8.58443 9.37422 8.42546 9.44006 8.30825 9.55727C8.19104 9.67449 8.12519 9.83346 8.12519 9.99922C8.12519 10.165 8.19104 10.3239 8.30825 10.4412C8.42546 10.5584 8.58443 10.6242 8.75019 10.6242H11.6669C11.8326 10.6242 11.9916 10.5584 12.1088 10.4412C12.226 10.3239 12.2919 10.165 12.2919 9.99922C12.2919 9.83346 12.226 9.67449 12.1088 9.55727C11.9916 9.44006 11.8326 9.37422 11.6669 9.37422ZM11.6669 12.7075H8.75019C8.58443 12.7075 8.42546 12.7734 8.30825 12.8906C8.19104 13.0078 8.12519 13.1668 8.12519 13.3325C8.12519 13.4983 8.19104 13.6573 8.30825 13.7745C8.42546 13.8917 8.58443 13.9575 8.75019 13.9575H11.6669C11.8326 13.9575 11.9916 13.8917 12.1088 13.7745C12.226 13.6573 12.2919 13.4983 12.2919 13.3325C12.2919 13.1668 12.226 13.0078 12.1088 12.8906C11.9916 12.7734 11.8326 12.7075 11.6669 12.7075ZM5.80853 5.80755L5.41686 6.19922C5.2957 6.08947 5.13636 6.03156 4.973 6.0379C4.80965 6.04425 4.65528 6.11435 4.543 6.23317C4.43072 6.35199 4.36947 6.51007 4.37237 6.67353C4.37527 6.83698 4.4421 6.99279 4.55853 7.10755L4.97519 7.52422C5.03311 7.58237 5.10194 7.62851 5.17773 7.66C5.25352 7.69148 5.33479 7.70769 5.41686 7.70769C5.49893 7.70769 5.5802 7.69148 5.65599 7.66C5.73178 7.62851 5.80061 7.58237 5.85853 7.52422L6.69186 6.69088C6.80226 6.5724 6.86236 6.4157 6.85951 6.25378C6.85665 6.09186 6.79105 5.93738 6.67654 5.82286C6.56203 5.70835 6.40755 5.64276 6.24563 5.6399C6.08371 5.63705 5.92701 5.69715 5.80853 5.80755ZM5.80853 9.14088L5.41603 9.53255C5.29438 9.42591 5.13612 9.3706 4.97453 9.37823C4.81294 9.38587 4.66061 9.45586 4.54956 9.57349C4.43851 9.69113 4.37739 9.84724 4.37907 10.009C4.38074 10.1708 4.44507 10.3256 4.55853 10.4409L4.97519 10.8575C5.03311 10.9157 5.10194 10.9618 5.17773 10.9933C5.25352 11.0248 5.33479 11.041 5.41686 11.041C5.49893 11.041 5.5802 11.0248 5.65599 10.9933C5.73178 10.9618 5.80061 10.9157 5.85853 10.8575L6.69186 10.0242C6.75326 9.967 6.80252 9.898 6.83668 9.82133C6.87084 9.74467 6.88921 9.6619 6.89069 9.57798C6.89217 9.49407 6.87673 9.41071 6.84529 9.33288C6.81386 9.25506 6.76707 9.18437 6.70772 9.12502C6.64838 9.06567 6.57768 9.01888 6.49986 8.98745C6.42203 8.95601 6.33868 8.94058 6.25476 8.94206C6.17084 8.94354 6.08808 8.96191 6.01141 8.99607C5.93474 9.03023 5.86574 9.07948 5.80853 9.14088ZM5.80853 12.4742L5.41603 12.8659C5.29438 12.7592 5.13612 12.7039 4.97453 12.7116C4.81294 12.7192 4.66061 12.7892 4.54956 12.9068C4.43851 13.0245 4.37739 13.1806 4.37907 13.3423C4.38074 13.5041 4.44507 13.6589 4.55853 13.7742L4.97519 14.1909C5.03311 14.249 5.10194 14.2952 5.17773 14.3267C5.25352 14.3581 5.33479 14.3744 5.41686 14.3744C5.49893 14.3744 5.5802 14.3581 5.65599 14.3267C5.73178 14.2952 5.80061 14.249 5.85853 14.1909L6.69186 13.3575C6.75326 13.3003 6.80252 13.2313 6.83668 13.1547C6.87084 13.078 6.88921 12.9952 6.89069 12.9113C6.89217 12.8274 6.87673 12.744 6.84529 12.6662C6.81386 12.5884 6.76707 12.5177 6.70772 12.4584C6.64838 12.399 6.57768 12.3522 6.49986 12.3208C6.42203 12.2893 6.33868 12.2739 6.25476 12.2754C6.17084 12.2769 6.08808 12.2952 6.01141 12.3294C5.93474 12.3636 5.86574 12.4128 5.80853 12.4742ZM18.1252 9.58255V15.8325C18.1248 16.4402 17.8832 17.0228 17.4535 17.4525C17.0238 17.8822 16.4412 18.1238 15.8335 18.1242H5.00019C4.57798 18.1732 4.15016 18.126 3.74875 17.9862C3.34733 17.8465 2.98271 17.6178 2.68216 17.3172C2.38161 17.0167 2.15291 16.6521 2.01317 16.2507C1.87342 15.8492 1.82626 15.4214 1.87519 14.9992V4.99922C1.82626 4.577 1.87342 4.14918 2.01317 3.74777C2.15291 3.34636 2.38161 2.98173 2.68216 2.68118C2.98271 2.38063 3.34733 2.15193 3.74875 2.01219C4.15016 1.87245 4.57798 1.82528 5.00019 1.87422H11.6669C12.0891 1.82528 12.5169 1.87245 12.9183 2.01219C13.3197 2.15193 13.6843 2.38063 13.9849 2.68118C14.2854 2.98173 14.5141 3.34636 14.6539 3.74777C14.7936 4.14918 14.8408 4.577 14.7919 4.99922V7.70755H16.2502C16.7473 7.70821 17.2238 7.90597 17.5753 8.25745C17.9268 8.60894 18.1245 9.08547 18.1252 9.58255ZM13.7919 16.8742C13.6266 16.5519 13.5409 16.1947 13.5419 15.8325V4.99922C13.5419 3.68505 12.981 3.12422 11.6669 3.12422H5.00019C3.68603 3.12422 3.12519 3.68505 3.12519 4.99922V14.9992C3.12519 16.3134 3.68603 16.8742 5.00019 16.8742H13.7919ZM16.8752 9.58255C16.875 9.41686 16.8091 9.25801 16.6919 9.14085C16.5747 9.02369 16.4159 8.95777 16.2502 8.95755H14.7919V15.8325C14.7919 16.1088 14.9016 16.3738 15.097 16.5691C15.2923 16.7645 15.5573 16.8742 15.8335 16.8742C16.1098 16.8742 16.3747 16.7645 16.5701 16.5691C16.7654 16.3738 16.8752 16.1088 16.8752 15.8325V9.58255Z" fill="#1570EF"/>
</svg>
