<svg width="20" height="20" viewBox="0 0 20 20" fill="none" xmlns="http://www.w3.org/2000/svg">
<path d="M14.167 13.0243C14.1666 12.2123 13.8951 11.4236 13.3955 10.7834C12.896 10.1432 12.197 9.68804 11.4095 9.49018L8.99279 8.89185C8.52486 8.77469 8.11595 8.49039 7.84315 8.09256C7.57036 7.69472 7.45252 7.21084 7.51186 6.73212C7.5712 6.25341 7.80361 5.81294 8.16529 5.49375C8.52697 5.17456 8.99291 4.99871 9.47529 4.99935H10.5253C11.0118 4.9997 11.481 5.17944 11.8433 5.50416C12.2055 5.82889 12.4353 6.2758 12.4886 6.75935C12.5134 6.97904 12.6244 7.17989 12.7972 7.31773C12.9701 7.45557 13.1906 7.5191 13.4103 7.49435C13.63 7.4696 13.8308 7.35858 13.9687 7.18574C14.1065 7.01289 14.17 6.79237 14.1453 6.57268C14.05 5.73096 13.6635 4.94902 13.0527 4.3621C12.4419 3.77518 11.6451 3.42018 10.8003 3.35852V2.49935C10.8003 2.27834 10.7125 2.06637 10.5562 1.91009C10.3999 1.75381 10.188 1.66602 9.96696 1.66602C9.74594 1.66602 9.53398 1.75381 9.3777 1.91009C9.22142 2.06637 9.13362 2.27834 9.13362 2.49935V3.36685C8.27945 3.44615 7.48091 3.82519 6.87942 4.43684C6.27794 5.04849 5.91233 5.85327 5.84735 6.70865C5.78238 7.56403 6.02222 8.41481 6.52442 9.1103C7.02661 9.80578 7.75873 10.3011 8.59112 10.5085L11.0078 11.1068C11.4744 11.2254 11.8817 11.5101 12.1533 11.9076C12.4249 12.3051 12.5421 12.7881 12.4828 13.2658C12.4236 13.7436 12.1921 14.1834 11.8317 14.5025C11.4712 14.8217 11.0067 14.9984 10.5253 14.9993H9.47529C8.98881 14.999 8.51954 14.8193 8.1573 14.4945C7.79505 14.1698 7.56528 13.7229 7.51196 13.2393C7.4872 13.0197 7.37619 12.8188 7.20335 12.681C7.11776 12.6127 7.01957 12.562 6.91439 12.5317C6.8092 12.5014 6.69907 12.4921 6.59029 12.5043C6.3706 12.5291 6.16975 12.6401 6.03191 12.813C5.89407 12.9858 5.83054 13.2063 5.85529 13.426C5.94938 14.2563 6.32682 15.0287 6.92399 15.6131C7.52116 16.1975 8.30155 16.5582 9.13362 16.6343V17.4993C9.13362 17.7204 9.22142 17.9323 9.3777 18.0886C9.53398 18.2449 9.74594 18.3327 9.96696 18.3327C10.188 18.3327 10.3999 18.2449 10.5562 18.0886C10.7125 17.9323 10.8003 17.7204 10.8003 17.4993V16.6393C11.7149 16.5752 12.5712 16.1663 13.1961 15.4953C13.8209 14.8244 14.1679 13.9412 14.167 13.0243Z" fill="#1570EF"/>
</svg>
