<svg width="20" height="20" viewBox="0 0 20 20" fill="none" xmlns="http://www.w3.org/2000/svg">
<path d="M16.4581 5.41757V14.5842C16.4577 15.0814 16.26 15.558 15.9085 15.9096C15.5569 16.2611 15.0803 16.4588 14.5831 16.4592H13.3331C13.1674 16.4592 13.0084 16.3934 12.8912 16.2762C12.774 16.159 12.7081 16 12.7081 15.8342C12.7081 15.6685 12.774 15.5095 12.8912 15.3923C13.0084 15.2751 13.1674 15.2092 13.3331 15.2092H14.5831C14.7489 15.2092 14.9079 15.1434 15.0251 15.0262C15.1423 14.909 15.2081 14.75 15.2081 14.5842V5.41757C15.2081 5.25181 15.1423 5.09284 15.0251 4.97563C14.9079 4.85842 14.7489 4.79257 14.5831 4.79257H13.3331C13.1674 4.79257 13.0084 4.72672 12.8912 4.60951C12.774 4.4923 12.7081 4.33333 12.7081 4.16757C12.7081 4.00181 12.774 3.84284 12.8912 3.72563C13.0084 3.60842 13.1674 3.54257 13.3331 3.54257H14.5831C15.0803 3.54301 15.5569 3.7407 15.9085 4.09223C16.26 4.44377 16.4577 4.92043 16.4581 5.41757ZM11.5898 2.28841C11.8092 2.46373 11.9862 2.68628 12.1077 2.93949C12.2292 3.19271 12.292 3.47006 12.2915 3.75091V16.2509C12.2915 16.7482 12.0939 17.2251 11.7423 17.5767C11.3906 17.9284 10.9137 18.1259 10.4165 18.1259C10.2786 18.1258 10.1411 18.1107 10.0065 18.0809L5.00645 16.9701C4.58862 16.8791 4.21473 16.6474 3.94741 16.3136C3.6801 15.9798 3.5356 15.5643 3.53812 15.1367V4.86257C3.5356 4.43496 3.6801 4.01947 3.94741 3.68571C4.21473 3.35195 4.58862 3.12018 5.00645 3.02924L10.0065 1.91841C10.2812 1.85672 10.5663 1.85797 10.8405 1.92204C11.1147 1.98611 11.3708 2.11136 11.5898 2.28841ZM11.0415 3.75091C11.041 3.58542 10.9751 3.42683 10.8582 3.30974C10.7413 3.19265 10.5828 3.12656 10.4173 3.12591C10.3713 3.12587 10.3254 3.13118 10.2806 3.14174L5.28062 4.25257C5.14158 4.2829 5.01715 4.36002 4.92813 4.47104C4.8391 4.58206 4.79085 4.72026 4.79145 4.86257V15.1392C4.79085 15.2815 4.8391 15.4198 4.92813 15.5308C5.01715 15.6418 5.14158 15.7189 5.28062 15.7492L10.2806 16.8601C10.3719 16.8804 10.4666 16.88 10.5577 16.8588C10.6489 16.8377 10.7341 16.7964 10.8071 16.7379C10.8801 16.6794 10.9391 16.6053 10.9796 16.521C11.0202 16.4368 11.0413 16.3444 11.0415 16.2509V3.75091ZM8.76645 9.16757H8.75812C8.53636 9.16868 8.3241 9.25768 8.16788 9.41507C8.01166 9.57246 7.92424 9.78539 7.92479 10.0071C7.92534 10.2289 8.01382 10.4414 8.17082 10.598C8.32782 10.7546 8.54053 10.8426 8.76229 10.8426C8.98404 10.8426 9.19675 10.7546 9.35375 10.598C9.51075 10.4414 9.59923 10.2289 9.59978 10.0071C9.60033 9.78539 9.51291 9.57246 9.35669 9.41507C9.20047 9.25768 8.98821 9.16868 8.76645 9.16757Z" fill="#717680"/>
</svg>
