<svg width="24" height="24" viewBox="0 0 24 24" fill="none" xmlns="http://www.w3.org/2000/svg">
<path d="M19.75 14.9999V17.9999C19.8088 18.5066 19.7522 19.02 19.5845 19.5017C19.4168 19.9833 19.1423 20.4209 18.7817 20.7816C18.421 21.1422 17.9835 21.4167 17.5018 21.5843C17.0201 21.752 16.5067 21.8086 16 21.7499H6.00004C5.49338 21.8086 4.98 21.752 4.4983 21.5843C4.0166 21.4167 3.57906 21.1422 3.2184 20.7816C2.85774 20.4209 2.5833 19.9833 2.4156 19.5017C2.24791 19.02 2.19131 18.5066 2.25004 17.9999V7.99991C2.19131 7.49326 2.24791 6.97988 2.4156 6.49818C2.5833 6.01648 2.85774 5.57894 3.2184 5.21828C3.57906 4.85761 4.0166 4.58317 4.4983 4.41548C4.98 4.24779 5.49338 4.19119 6.00004 4.24991H9.00004C9.19895 4.24991 9.38971 4.32893 9.53037 4.46958C9.67102 4.61024 9.75004 4.801 9.75004 4.99991C9.75004 5.19883 9.67102 5.38959 9.53037 5.53024C9.38971 5.6709 9.19895 5.74991 9.00004 5.74991H6.00004C4.42304 5.74991 3.75004 6.42291 3.75004 7.99991V17.9999C3.75004 19.5769 4.42304 20.2499 6.00004 20.2499H16C17.577 20.2499 18.25 19.5769 18.25 17.9999V14.9999C18.25 14.801 18.3291 14.6102 18.4697 14.4696C18.6104 14.3289 18.8011 14.2499 19 14.2499C19.1989 14.2499 19.3897 14.3289 19.5304 14.4696C19.671 14.6102 19.75 14.801 19.75 14.9999ZM21.75 6.05591C21.7499 6.34492 21.6924 6.63103 21.5808 6.89763C21.4693 7.16423 21.3058 7.406 21.1 7.60891L12.137 16.5309C11.9962 16.6711 11.8057 16.7498 11.607 16.7499H8.00004C7.80112 16.7499 7.61036 16.6709 7.46971 16.5302C7.32905 16.3896 7.25004 16.1988 7.25004 15.9999V12.3889C7.24985 12.2907 7.2691 12.1933 7.30669 12.1025C7.34428 12.0117 7.39945 11.9293 7.46904 11.8599L16.392 2.89991C16.5948 2.69477 16.8364 2.53201 17.1026 2.4211C17.3689 2.3102 17.6546 2.25337 17.943 2.25391C18.2314 2.25312 18.5171 2.30954 18.7835 2.41991C19.0499 2.53029 19.2917 2.69242 19.495 2.89691L21.107 4.49991C21.3121 4.70366 21.4745 4.94617 21.5849 5.2133C21.6953 5.48044 21.7514 5.76687 21.75 6.05591ZM17.617 8.96291L15.037 6.38291L8.75004 12.6999V15.2499H11.3L17.617 8.96291ZM20.25 6.05391C20.2507 5.96278 20.2334 5.87242 20.199 5.78799C20.1647 5.70357 20.1141 5.62674 20.05 5.56191L18.44 3.95291C18.3755 3.88872 18.2989 3.83798 18.2146 3.80364C18.1303 3.76931 18.04 3.75207 17.949 3.75291C17.8581 3.75234 17.7679 3.76971 17.6836 3.80403C17.5994 3.83835 17.5227 3.88894 17.458 3.95291L16.1 5.31991L18.68 7.90491L20.045 6.54591C20.11 6.4815 20.1615 6.40485 20.1967 6.32041C20.2319 6.23597 20.25 6.14539 20.25 6.05391Z" fill="#414651"/>
</svg>
