<svg width="20" height="20" viewBox="0 0 20 20" fill="none" xmlns="http://www.w3.org/2000/svg">
<rect width="20" height="20" rx="4" fill="#FAFAFA"/>
<path d="M15.3872 8.91391C14.6213 7.63116 12.9028 5.47925 10.0002 5.47925C7.09748 5.47925 5.37898 7.63116 4.61307 8.91391C4.41639 9.24208 4.3125 9.61749 4.3125 10.0001C4.3125 10.3827 4.41639 10.7581 4.61307 11.0862C5.37898 12.369 7.09748 14.5209 10.0002 14.5209C12.9028 14.5209 14.6213 12.369 15.3872 11.0862C15.5839 10.7581 15.6878 10.3827 15.6878 10.0001C15.6878 9.61749 15.5839 9.24208 15.3872 8.91391ZM14.6365 10.6371C13.9668 11.7612 12.4706 13.6459 10.0002 13.6459C7.52973 13.6459 6.03348 11.7612 5.36382 10.6371C5.24846 10.4446 5.18753 10.2245 5.18753 10.0001C5.18753 9.7757 5.24846 9.55554 5.36382 9.36308C6.03348 8.239 7.52973 6.35425 10.0002 6.35425C12.4706 6.35425 13.9668 8.239 14.6365 9.36308C14.7518 9.55554 14.8128 9.7757 14.8128 10.0001C14.8128 10.2245 14.7518 10.4446 14.6365 10.6371ZM10.0002 7.52091C9.50982 7.52091 9.0305 7.66632 8.6228 7.93873C8.2151 8.21114 7.89734 8.59834 7.7097 9.05135C7.52206 9.50435 7.47296 10.0028 7.56862 10.4837C7.66428 10.9647 7.9004 11.4064 8.24712 11.7531C8.59383 12.0998 9.03558 12.336 9.51649 12.4316C9.9974 12.5273 10.4959 12.4782 10.9489 12.2905C11.4019 12.1029 11.7891 11.7851 12.0615 11.3774C12.3339 10.9697 12.4793 10.4904 12.4793 10.0001C12.4785 9.3428 12.2171 8.71267 11.7523 8.2479C11.2876 7.78313 10.6574 7.52169 10.0002 7.52091ZM10.0002 11.6042C9.68288 11.6042 9.37273 11.5102 9.10892 11.3339C8.84512 11.1576 8.63951 10.9071 8.51809 10.614C8.39668 10.3208 8.36491 9.9983 8.42681 9.68712C8.4887 9.37595 8.64149 9.09011 8.86583 8.86576C9.09018 8.64142 9.37602 8.48864 9.68719 8.42674C9.99837 8.36484 10.3209 8.39661 10.614 8.51802C10.9072 8.63944 11.1577 8.84505 11.334 9.10885C11.5102 9.37266 11.6043 9.68281 11.6043 10.0001C11.604 10.4254 11.4349 10.8333 11.1341 11.1341C10.8334 11.4348 10.4255 11.6039 10.0002 11.6042Z" fill="#1570EF"/>
</svg>
