<svg width="20" height="20" viewBox="0 0 20 20" fill="none" xmlns="http://www.w3.org/2000/svg">
<path d="M7.5074 8.95834C6.80692 8.95834 6.12218 8.75062 5.53975 8.36146C4.95733 7.97229 4.50338 7.41916 4.23532 6.77201C3.96726 6.12485 3.89713 5.41274 4.03378 4.72572C4.17044 4.03871 4.50775 3.40764 5.00306 2.91233C5.49837 2.41702 6.12944 2.07971 6.81645 1.94305C7.50347 1.8064 8.21558 1.87653 8.86273 2.14459C9.50989 2.41266 10.063 2.8666 10.4522 3.44902C10.8413 4.03145 11.0491 4.71619 11.0491 5.41667C11.048 6.35564 10.6745 7.25583 10.0105 7.91979C9.34656 8.58374 8.44637 8.95723 7.5074 8.95834ZM7.5074 3.125C7.05415 3.125 6.61108 3.25941 6.23421 3.51122C5.85735 3.76303 5.56362 4.12094 5.39017 4.53969C5.21672 4.95843 5.17134 5.41921 5.25976 5.86375C5.34819 6.30829 5.56645 6.71663 5.88694 7.03712C6.20744 7.35762 6.61577 7.57588 7.06031 7.6643C7.50485 7.75273 7.96563 7.70734 8.38438 7.53389C8.80313 7.36044 9.16104 7.06671 9.41285 6.68985C9.66466 6.31299 9.79906 5.86992 9.79906 5.41667C9.79862 4.80902 9.55704 4.22638 9.12736 3.7967C8.69769 3.36703 8.11505 3.12544 7.5074 3.125ZM10.8332 18.125H4.16656C2.1499 18.125 1.03906 17.0208 1.03906 15.0158C1.03906 12.7975 2.29406 10.2083 5.83073 10.2083H9.16406C12.7007 10.2083 13.9557 12.7975 13.9557 15.0158C13.9582 17.0208 12.8474 18.125 10.8332 18.125ZM5.83323 11.4583C5.35738 11.4215 4.87922 11.4884 4.43175 11.6544C3.98428 11.8204 3.57816 12.0816 3.24144 12.4198C2.90472 12.758 2.6454 13.1653 2.48141 13.6135C2.31741 14.0617 2.25264 14.5402 2.29156 15.0158C2.29156 16.3192 2.85323 16.875 4.16906 16.875H10.8332C12.1491 16.875 12.7107 16.3192 12.7107 15.0158C12.7497 14.5399 12.6849 14.0612 12.5207 13.6128C12.3566 13.1644 12.0971 12.757 11.76 12.4188C11.423 12.0805 11.0166 11.8194 10.5688 11.6536C10.1211 11.4878 9.64261 11.4212 9.16656 11.4583H5.83323ZM13.7999 9.325C13.0525 9.32757 12.3341 9.03602 11.7999 8.51333C11.6986 8.39501 11.6451 8.24312 11.65 8.08744C11.6548 7.93175 11.7176 7.78349 11.8261 7.67169C11.9346 7.5599 12.0809 7.49263 12.2363 7.48307C12.3918 7.4735 12.5452 7.52234 12.6666 7.62C12.9687 7.9145 13.3747 8.07799 13.7966 8.075C14.0128 8.07734 14.2273 8.03648 14.4276 7.95481C14.6278 7.87314 14.8097 7.7523 14.9626 7.59939C15.1155 7.44648 15.2364 7.26457 15.318 7.06433C15.3997 6.8641 15.4406 6.64957 15.4382 6.43333C15.4376 5.99814 15.2644 5.58096 14.9567 5.27323C14.6489 4.9655 14.2318 4.79233 13.7966 4.79167C13.5574 4.78786 13.3209 4.84129 13.1066 4.9475C12.9588 5.02276 12.7872 5.03624 12.6295 4.98498C12.4719 4.93372 12.341 4.82192 12.2657 4.67417C12.1905 4.52642 12.177 4.35483 12.2283 4.19714C12.2795 4.03946 12.3913 3.90859 12.5391 3.83333C12.9299 3.63659 13.3623 3.53656 13.7999 3.54167C14.1796 3.54167 14.5557 3.61646 14.9065 3.76178C15.2573 3.9071 15.5761 4.1201 15.8446 4.38862C16.1131 4.65713 16.3261 4.97591 16.4714 5.32674C16.6168 5.67758 16.6916 6.0536 16.6916 6.43333C16.6916 6.81307 16.6168 7.1891 16.4714 7.53993C16.3261 7.89076 16.1131 8.20954 15.8446 8.47805C15.5761 8.74657 15.2573 8.95957 14.9065 9.10489C14.5557 9.25021 14.1796 9.325 13.7999 9.325ZM16.3832 16.4583H15.8166C15.6508 16.4583 15.4918 16.3925 15.3746 16.2753C15.2574 16.1581 15.1916 15.9991 15.1916 15.8333C15.1916 15.6676 15.2574 15.5086 15.3746 15.3914C15.4918 15.2742 15.6508 15.2083 15.8166 15.2083H16.3832C17.3374 15.2083 17.7082 14.8417 17.7082 13.9C17.7368 13.5488 17.6888 13.1955 17.5675 12.8646C17.4462 12.5337 17.2546 12.2331 17.0058 11.9835C16.757 11.734 16.457 11.5413 16.1265 11.419C15.796 11.2967 15.4429 11.2476 15.0916 11.275H13.8332C13.6675 11.275 13.5085 11.2092 13.3913 11.0919C13.2741 10.9747 13.2082 10.8158 13.2082 10.65C13.2082 10.4842 13.2741 10.3253 13.3913 10.2081C13.5085 10.0909 13.6675 10.025 13.8332 10.025H15.0916C15.6089 9.99103 16.1274 10.068 16.6125 10.2509C17.0976 10.4337 17.538 10.7181 17.9042 11.0851C18.2704 11.4521 18.5538 11.8931 18.7356 12.3786C18.9174 12.864 18.9933 13.3828 18.9582 13.9C18.9939 14.2462 18.9516 14.596 18.8345 14.9237C18.7175 15.2514 18.5286 15.5488 18.2817 15.7941C18.0348 16.0394 17.7362 16.2264 17.4077 16.3413C17.0792 16.4562 16.7292 16.4962 16.3832 16.4583Z" fill="#535862"/>
</svg>
