<svg width="24" height="24" viewBox="0 0 24 24" fill="none" xmlns="http://www.w3.org/2000/svg">
<path d="M18 21.7503H13.75V16.5003C13.75 16.0362 13.5657 15.5911 13.2375 15.2629C12.9093 14.9347 12.4642 14.7503 12 14.7503C11.5359 14.7503 11.0908 14.9347 10.7626 15.2629C10.4344 15.5911 10.25 16.0362 10.25 16.5003V21.7503H6.00004C5.49338 21.809 4.98 21.7524 4.4983 21.5848C4.0166 21.4171 3.57906 21.1426 3.2184 20.782C2.85774 20.4213 2.5833 19.9838 2.4156 19.5021C2.24791 19.0204 2.19131 18.507 2.25004 18.0003V11.6503C2.25004 9.52833 2.83604 8.93433 3.79204 8.14132L9.91204 3.01032C10.4967 2.51862 11.2361 2.24902 12 2.24902C12.764 2.24902 13.5034 2.51862 14.088 3.01032L20.208 8.14132C21.164 8.93433 21.75 9.52833 21.75 11.6503V18.0003C21.8088 18.507 21.7522 19.0204 21.5845 19.5021C21.4168 19.9838 21.1423 20.4213 20.7817 20.782C20.421 21.1426 19.9835 21.4171 19.5018 21.5848C19.0201 21.7524 18.5067 21.809 18 21.7503ZM15.25 20.2503H18C19.577 20.2503 20.25 19.5773 20.25 18.0003V11.6503C20.25 10.1253 19.998 9.91633 19.25 9.29533L13.125 4.15932C12.8098 3.8948 12.4115 3.7498 12 3.7498C11.5886 3.7498 11.1902 3.8948 10.875 4.15932L4.74904 9.30033C4.00204 9.92133 3.74904 10.1303 3.74904 11.6553V18.0003C3.74904 19.5773 4.42204 20.2503 5.99904 20.2503H8.75004V16.5003C8.75004 15.6384 9.09245 14.8117 9.70194 14.2022C10.3114 13.5927 11.1381 13.2503 12 13.2503C12.862 13.2503 13.6886 13.5927 14.2981 14.2022C14.9076 14.8117 15.25 15.6384 15.25 16.5003V20.2503Z" fill="#1570EF"/>
</svg>
