<svg width="20" height="20" viewBox="0 0 20 20" fill="none" xmlns="http://www.w3.org/2000/svg">
<path d="M11.4771 11.6854C11.4771 11.8512 11.4112 12.0101 11.294 12.1274C11.1768 12.2446 11.0178 12.3104 10.8521 12.3104H5.85208C5.68632 12.3104 5.52735 12.2446 5.41014 12.1274C5.29293 12.0101 5.22708 11.8512 5.22708 11.6854C5.22708 11.5197 5.29293 11.3607 5.41014 11.2435C5.52735 11.1263 5.68632 11.0604 5.85208 11.0604H10.8521C11.0178 11.0604 11.1768 11.1263 11.294 11.2435C11.4112 11.3607 11.4771 11.5197 11.4771 11.6854ZM8.35208 13.5604H5.85208C5.68632 13.5604 5.52735 13.6263 5.41014 13.7435C5.29293 13.8607 5.22708 14.0197 5.22708 14.1854C5.22708 14.3512 5.29293 14.5101 5.41014 14.6274C5.52735 14.7446 5.68632 14.8104 5.85208 14.8104H8.35208C8.51784 14.8104 8.67681 14.7446 8.79402 14.6274C8.91123 14.5101 8.97708 14.3512 8.97708 14.1854C8.97708 14.0197 8.91123 13.8607 8.79402 13.7435C8.67681 13.6263 8.51784 13.5604 8.35208 13.5604ZM18.1437 9.60208V15.8521C18.1433 16.4597 17.9017 17.0424 17.472 17.472C17.0424 17.9017 16.4597 18.1433 15.8521 18.1437H5.01875C4.59653 18.1927 4.16871 18.1455 3.7673 18.0058C3.36589 17.866 3.00127 17.6373 2.70072 17.3368C2.40016 17.0362 2.17146 16.6716 2.03172 16.2702C1.89198 15.8688 1.84481 15.441 1.89375 15.0187V5.01875C1.84481 4.59653 1.89198 4.16871 2.03172 3.7673C2.17146 3.36589 2.40016 3.00127 2.70072 2.70072C3.00127 2.40016 3.36589 2.17146 3.7673 2.03172C4.16871 1.89198 4.59653 1.84481 5.01875 1.89375H11.6854C12.1076 1.84481 12.5354 1.89198 12.9369 2.03172C13.3383 2.17146 13.7029 2.40016 14.0034 2.70072C14.304 3.00127 14.5327 3.36589 14.6724 3.7673C14.8122 4.16871 14.8594 4.59653 14.8104 5.01875V7.72708H16.2687C16.7659 7.72752 17.2425 7.92521 17.5941 8.27674C17.9456 8.62828 18.1433 9.10494 18.1437 9.60208ZM13.8104 16.8937C13.6451 16.5715 13.5594 16.2143 13.5604 15.8521V5.01875C13.5604 3.70458 12.9996 3.14375 11.6854 3.14375H5.01875C3.70458 3.14375 3.14375 3.70458 3.14375 5.01875V15.0187C3.14375 16.3329 3.70458 16.8937 5.01875 16.8937H13.8104ZM16.8937 9.60208C16.8937 9.43632 16.8279 9.27735 16.7107 9.16014C16.5935 9.04293 16.4345 8.97708 16.2687 8.97708H14.8104V15.8521C14.8104 16.1283 14.9202 16.3933 15.1155 16.5886C15.3109 16.784 15.5758 16.8937 15.8521 16.8937C16.1283 16.8937 16.3933 16.784 16.5886 16.5886C16.784 16.3933 16.8937 16.1283 16.8937 15.8521V9.60208ZM6.37958 7.60708L7.15375 7.80708C7.21801 7.82697 7.27396 7.86744 7.31296 7.92225C7.35196 7.97706 7.37186 8.04318 7.36958 8.11041C7.37019 8.19464 7.33825 8.27585 7.28041 8.33708C7.25629 8.36299 7.22716 8.38373 7.19479 8.39806C7.16242 8.41238 7.12748 8.41999 7.09208 8.42041H6.75875C6.68714 8.41572 6.61967 8.38515 6.56893 8.3344C6.51818 8.28366 6.48761 8.21619 6.48291 8.14458C6.46301 7.98138 6.3796 7.83259 6.25076 7.73046C6.12192 7.62833 5.95803 7.58108 5.79459 7.59895C5.63115 7.61682 5.48134 7.69836 5.37761 7.82592C5.27388 7.95348 5.22459 8.11677 5.24041 8.28041C5.27096 8.57685 5.38646 8.85816 5.57302 9.09054C5.75957 9.32292 6.00926 9.4965 6.29208 9.59041V9.60208C6.29208 9.76784 6.35793 9.92681 6.47514 10.044C6.59235 10.1612 6.75132 10.2271 6.91708 10.2271C7.08284 10.2271 7.24181 10.1612 7.35902 10.044C7.47623 9.92681 7.54208 9.76784 7.54208 9.60208V9.59625C7.78587 9.522 8.0069 9.38726 8.18458 9.20458C8.37338 9.00822 8.50798 8.76623 8.57525 8.50226C8.64251 8.2383 8.64012 7.96139 8.56832 7.69863C8.49652 7.43586 8.35776 7.19622 8.16561 7.00314C7.97346 6.81006 7.7345 6.67015 7.47208 6.59708L6.69708 6.39708C6.63533 6.38 6.58124 6.34238 6.54375 6.29041C6.50115 6.23363 6.4778 6.16473 6.47708 6.09375C6.47298 6.01581 6.49984 5.93941 6.55182 5.88119C6.6038 5.82297 6.67668 5.78764 6.75458 5.78291H7.08791C7.15983 5.78672 7.2278 5.81701 7.27873 5.86793C7.32965 5.91886 7.35994 5.98683 7.36375 6.05875C7.38176 6.22362 7.46453 6.37459 7.59385 6.47844C7.72318 6.58229 7.88845 6.63051 8.05333 6.6125C8.21821 6.59448 8.36918 6.51171 8.47302 6.38239C8.57687 6.25307 8.62509 6.08779 8.60708 5.92291C8.57586 5.62276 8.45765 5.33825 8.26697 5.10435C8.0763 4.87044 7.82145 4.69732 7.53375 4.60625C7.53375 4.44049 7.4679 4.28152 7.35069 4.16431C7.23348 4.0471 7.07451 3.98125 6.90875 3.98125C6.74299 3.98125 6.58402 4.0471 6.46681 4.16431C6.3496 4.28152 6.28375 4.44049 6.28375 4.60625V4.61875C5.97546 4.72318 5.70769 4.92166 5.51814 5.18627C5.32858 5.45087 5.22678 5.76826 5.22708 6.09375C5.22612 6.43622 5.33669 6.7697 5.54208 7.04375C5.74963 7.32071 6.04481 7.51926 6.37958 7.60708Z" fill="#535862"/>
</svg>
