<svg width="20" height="20" viewBox="0 0 20 20" fill="none" xmlns="http://www.w3.org/2000/svg">
<path d="M13.3329 18.3338H6.66621C6.24399 18.3828 5.81618 18.3356 5.41476 18.1958C5.01335 18.0561 4.64873 17.8274 4.34818 17.5269C4.04763 17.2263 3.81892 16.8617 3.67918 16.4603C3.53944 16.0589 3.49227 15.631 3.54121 15.2088V4.79219C3.49227 4.36997 3.53944 3.94215 3.67918 3.54074C3.81892 3.13932 4.04763 2.7747 4.34818 2.47415C4.64873 2.1736 5.01335 1.9449 5.41476 1.80516C5.81618 1.66542 6.24399 1.61825 6.66621 1.66719H13.3329C13.7551 1.61825 14.1829 1.66542 14.5843 1.80516C14.9857 1.9449 15.3504 2.1736 15.6509 2.47415C15.9515 2.7747 16.1802 3.13932 16.3199 3.54074C16.4596 3.94215 16.5068 4.36997 16.4579 4.79219V15.2088C16.5068 15.631 16.4596 16.0589 16.3199 16.4603C16.1802 16.8617 15.9515 17.2263 15.6509 17.5269C15.3504 17.8274 14.9857 18.0561 14.5843 18.1958C14.1829 18.3356 13.7551 18.3828 13.3329 18.3338ZM6.66621 2.91719C5.35204 2.91719 4.79121 3.47802 4.79121 4.79219V15.2088C4.79121 16.523 5.35204 17.0838 6.66621 17.0838H13.3329C14.647 17.0838 15.2079 16.523 15.2079 15.2088V4.79219C15.2079 3.47802 14.647 2.91719 13.3329 2.91719H6.66621ZM11.8745 4.79219C11.8745 4.62643 11.8087 4.46745 11.6915 4.35024C11.5743 4.23303 11.4153 4.16719 11.2495 4.16719H8.74954C8.58378 4.16719 8.42481 4.23303 8.3076 4.35024C8.19039 4.46745 8.12454 4.62643 8.12454 4.79219C8.12454 4.95795 8.19039 5.11692 8.3076 5.23413C8.42481 5.35134 8.58378 5.41719 8.74954 5.41719H11.2495C11.4153 5.41719 11.5743 5.35134 11.6915 5.23413C11.8087 5.11692 11.8745 4.95795 11.8745 4.79219ZM9.99954 14.3755C9.83472 14.3755 9.67361 14.4244 9.53657 14.5159C9.39953 14.6075 9.29272 14.7376 9.22964 14.8899C9.16657 15.0422 9.15007 15.2097 9.18222 15.3714C9.21437 15.533 9.29374 15.6815 9.41029 15.7981C9.52683 15.9146 9.67532 15.994 9.83697 16.0261C9.99862 16.0583 10.1662 16.0418 10.3184 15.9787C10.4707 15.9156 10.6009 15.8088 10.6924 15.6718C10.784 15.5348 10.8329 15.3736 10.8329 15.2088C10.8329 14.9878 10.7451 14.7758 10.5888 14.6196C10.4325 14.4633 10.2206 14.3755 9.99954 14.3755Z" fill="#A4A7AE"/>
</svg>
