<svg width="20" height="20" viewBox="0 0 20 20" fill="none" xmlns="http://www.w3.org/2000/svg">
<path d="M3.34988 11.25C3.01836 11.2511 2.69997 11.1205 2.46477 10.8868C2.22957 10.6532 2.09682 10.3357 2.09571 10.0042C2.09461 9.67265 2.22524 9.35426 2.45888 9.11906C2.69252 8.88386 3.01002 8.75111 3.34154 8.75H3.34988C3.6814 8.75 3.99934 8.8817 4.23376 9.11612C4.46818 9.35054 4.59988 9.66848 4.59988 10C4.59988 10.3315 4.46818 10.6495 4.23376 10.8839C3.99934 11.1183 3.6814 11.25 3.34988 11.25ZM10.0165 11.25C9.68502 11.2511 9.36664 11.1205 9.13144 10.8868C8.89624 10.6532 8.76348 10.3357 8.76238 10.0042C8.76127 9.67265 8.89191 9.35426 9.12555 9.11906C9.35919 8.88386 9.67669 8.75111 10.0082 8.75H10.0165C10.3481 8.75 10.666 8.8817 10.9004 9.11612C11.1348 9.35054 11.2665 9.66848 11.2665 10C11.2665 10.3315 11.1348 10.6495 10.9004 10.8839C10.666 11.1183 10.3481 11.25 10.0165 11.25ZM16.6832 11.25C16.3517 11.2511 16.0333 11.1205 15.7981 10.8868C15.5629 10.6532 15.4301 10.3357 15.429 10.0042C15.4279 9.67265 15.5586 9.35426 15.7922 9.11906C16.0259 8.88386 16.3434 8.75111 16.6749 8.75H16.6832C17.0147 8.75 17.3327 8.8817 17.5671 9.11612C17.8015 9.35054 17.9332 9.66848 17.9332 10C17.9332 10.3315 17.8015 10.6495 17.5671 10.8839C17.3327 11.1183 17.0147 11.25 16.6832 11.25Z" fill="#414651"/>
</svg>
