<svg width="24" height="24" viewBox="0 0 24 24" fill="none" xmlns="http://www.w3.org/2000/svg">
<path d="M21.413 8.717L20.343 4.97C19.961 3.633 19.565 2.25 16.737 2.25H7.26304C4.43504 2.25 4.03904 3.633 3.65704 4.97L2.58704 8.717C2.36356 9.49742 2.25013 10.3052 2.25004 11.117V18C2.19131 18.5067 2.24791 19.02 2.4156 19.5017C2.5833 19.9834 2.85774 20.421 3.2184 20.7816C3.57906 21.1423 4.0166 21.4167 4.4983 21.5844C4.98 21.7521 5.49338 21.8087 6.00004 21.75H18C18.5067 21.8087 19.0201 21.7521 19.5018 21.5844C19.9835 21.4167 20.421 21.1423 20.7817 20.7816C21.1423 20.421 21.4168 19.9834 21.5845 19.5017C21.7522 19.02 21.8088 18.5067 21.75 18V11.12C21.7502 10.3072 21.6368 9.49838 21.413 8.717ZM18.9 5.382L19.971 9.128C19.982 9.168 19.986 9.21 19.996 9.25H12.75V3.75H16.737C18.435 3.75 18.552 4.161 18.9 5.382ZM5.10004 5.382C5.44904 4.161 5.56604 3.75 7.26404 3.75H11.25V9.25H4.00004C4.01004 9.21 4.01404 9.168 4.02504 9.129L5.10004 5.382ZM20.25 18C20.25 19.577 19.577 20.25 18 20.25H6.00004C4.42304 20.25 3.75004 19.577 3.75004 18V11.12C3.75004 10.996 3.76904 10.874 3.77604 10.75H20.224C20.231 10.874 20.25 10.996 20.25 11.12V18ZM15.03 13.136C15.0997 13.2057 15.155 13.2884 15.1927 13.3794C15.2305 13.4704 15.2499 13.568 15.2499 13.6665C15.2499 13.765 15.2305 13.8626 15.1927 13.9536C15.155 14.0446 15.0997 14.1273 15.03 14.197L11.7 17.53C11.6305 17.5998 11.5479 17.6552 11.457 17.6929C11.366 17.7307 11.2685 17.7502 11.17 17.7502C11.0715 17.7502 10.974 17.7307 10.8831 17.6929C10.7921 17.6552 10.7095 17.5998 10.64 17.53L8.97004 15.864C8.90017 15.7944 8.8447 15.7117 8.80679 15.6207C8.76888 15.5296 8.74927 15.432 8.74909 15.3334C8.7489 15.2348 8.76814 15.1371 8.80571 15.0459C8.84328 14.9548 8.89844 14.8719 8.96804 14.802C9.03764 14.7321 9.12032 14.6767 9.21135 14.6388C9.30239 14.6008 9.40001 14.5812 9.49862 14.5811C9.59724 14.5809 9.69492 14.6001 9.78611 14.6377C9.87729 14.6752 9.96017 14.7304 10.03 14.8L11.167 15.936L13.967 13.136C14.0368 13.0661 14.1196 13.0107 14.2108 12.9729C14.302 12.935 14.3998 12.9156 14.4985 12.9156C14.5973 12.9156 14.695 12.935 14.7862 12.9729C14.8774 13.0107 14.9603 13.0661 15.03 13.136Z" fill="#717680"/>
</svg>
