<svg width="18" height="18" viewBox="0 0 18 18" fill="none" xmlns="http://www.w3.org/2000/svg">
<path d="M16.06 6.53775L15.2575 3.7275C14.971 2.72475 14.674 1.6875 12.553 1.6875H5.44752C3.32652 1.6875 3.02952 2.72475 2.74302 3.7275L1.94052 6.53775C1.77292 7.12306 1.68785 7.72891 1.68777 8.33775V13.5C1.64373 13.88 1.68618 14.265 1.81195 14.6263C1.93772 14.9876 2.14355 15.3157 2.41404 15.5862C2.68454 15.8567 3.0127 16.0626 3.37397 16.1883C3.73524 16.3141 4.12028 16.3565 4.50027 16.3125H13.5003C13.8803 16.3565 14.2653 16.3141 14.6266 16.1883C14.9878 16.0626 15.316 15.8567 15.5865 15.5862C15.857 15.3157 16.0628 14.9876 16.1886 14.6263C16.3144 14.265 16.3568 13.88 16.3128 13.5V8.34C16.3129 7.73041 16.2278 7.12379 16.06 6.53775ZM14.1753 4.0365L14.9785 6.846C14.9868 6.876 14.9898 6.9075 14.9973 6.9375H9.56277V2.8125H12.553C13.8265 2.8125 13.9143 3.12075 14.1753 4.0365ZM3.82527 4.0365C4.08702 3.12075 4.17477 2.8125 5.44827 2.8125H8.43777V6.9375H3.00027C3.00777 6.9075 3.01077 6.876 3.01902 6.84675L3.82527 4.0365ZM15.1878 13.5C15.1878 14.6827 14.683 15.1875 13.5003 15.1875H4.50027C3.31752 15.1875 2.81277 14.6827 2.81277 13.5V8.34C2.81277 8.247 2.82702 8.1555 2.83227 8.0625H15.1683C15.1735 8.1555 15.1878 8.247 15.1878 8.34V13.5ZM11.2728 9.852C11.325 9.90424 11.3665 9.96626 11.3948 10.0345C11.4231 10.1028 11.4377 10.176 11.4377 10.2499C11.4377 10.3238 11.4231 10.3969 11.3948 10.4652C11.3665 10.5335 11.325 10.5955 11.2728 10.6477L8.77527 13.1475C8.72315 13.1998 8.6612 13.2414 8.59299 13.2697C8.52477 13.298 8.45164 13.3126 8.37777 13.3126C8.30391 13.3126 8.23077 13.298 8.16255 13.2697C8.09434 13.2414 8.03239 13.1998 7.98027 13.1475L6.72777 11.898C6.67537 11.8458 6.63377 11.7838 6.60534 11.7155C6.57691 11.6472 6.5622 11.574 6.56206 11.5001C6.56192 11.4261 6.57635 11.3528 6.60453 11.2844C6.6327 11.2161 6.67407 11.1539 6.72627 11.1015C6.77847 11.0491 6.84048 11.0075 6.90876 10.9791C6.97704 10.9506 7.05025 10.9359 7.12421 10.9358C7.19817 10.9356 7.27144 10.9501 7.33982 10.9783C7.40821 11.0064 7.47037 11.0478 7.52277 11.1L8.37552 11.952L10.4755 9.852C10.5278 9.79959 10.59 9.75802 10.6584 9.72965C10.7268 9.70128 10.8001 9.68668 10.8741 9.68668C10.9482 9.68668 11.0215 9.70128 11.0899 9.72965C11.1583 9.75802 11.2205 9.79959 11.2728 9.852Z" fill="#414651"/>
</svg>
