<svg width="18" height="18" viewBox="0 0 18 18" fill="none" xmlns="http://www.w3.org/2000/svg">
<g clip-path="url(#clip0_18293_45903)">
<path d="M14.5038 1.87945L9.5793 1.01095C9.17786 0.912878 8.76084 0.896264 8.35287 0.96209C7.9449 1.02792 7.55427 1.17485 7.20405 1.3942C6.87825 1.64809 6.6067 1.96476 6.40547 2.32547C6.20425 2.68618 6.07744 3.0836 6.03255 3.4942L5.95155 3.9547L3.4923 4.38745C1.5468 4.73395 0.6663 5.99545 1.01205 7.93945L2.17005 14.5042C2.21369 14.9144 2.33927 15.3116 2.53935 15.6724C2.73943 16.0331 3.00993 16.35 3.3348 16.6042C3.8029 16.9183 4.35758 17.078 4.92105 17.0609C5.18674 17.0592 5.45176 17.0341 5.71305 16.986L10.6413 16.1182C11.1311 16.079 11.602 15.9123 12.0075 15.6349C12.413 15.3574 12.7389 14.9787 12.9528 14.5365C12.9888 14.5365 13.0278 14.547 13.0653 14.547C14.5653 14.547 15.5358 13.6604 15.8306 11.9909L16.9878 5.4247C17.3305 3.4822 16.4493 2.2222 14.5038 1.87945ZM10.444 15.0135L5.5173 15.8805C4.99977 16.0203 4.44793 15.9499 3.98205 15.6847C3.57523 15.3379 3.32208 14.8442 3.2778 14.3115L2.11905 7.7437C1.88205 6.4057 2.35155 5.7337 3.68805 5.4937L5.74305 5.1322L4.87455 10.0612C4.5318 12.0059 5.4138 13.266 7.35855 13.6095L11.746 14.3827C11.3999 14.7397 10.9388 14.9631 10.444 15.0135ZM15.8808 5.23195L14.7236 11.7974C14.4866 13.1354 13.8168 13.6057 12.4781 13.3724L7.55355 12.504C6.2163 12.2685 5.74605 11.5964 5.9823 10.2592L7.1403 3.6907C7.18638 3.15664 7.44135 2.66234 7.8498 2.3152C8.13047 2.13576 8.45976 2.04748 8.79255 2.06245C8.99134 2.06396 9.18961 2.08304 9.38505 2.11945L14.3088 2.9872C15.6461 3.22495 16.1163 3.89395 15.8808 5.23195ZM13.9496 8.2762C13.9265 8.40625 13.8584 8.52404 13.7572 8.60892C13.656 8.6938 13.5281 8.74037 13.396 8.74045C13.3634 8.74069 13.3307 8.73792 13.2986 8.7322L8.37405 7.8637C8.22954 7.83532 8.10193 7.7514 8.01861 7.62996C7.9353 7.50853 7.90294 7.35926 7.92847 7.21422C7.954 7.06919 8.03539 6.93995 8.15516 6.85426C8.27494 6.76857 8.42354 6.73328 8.56905 6.75595L13.4928 7.62445C13.5656 7.63722 13.6352 7.66422 13.6975 7.70389C13.7599 7.74356 13.8138 7.79514 13.8562 7.85567C13.8987 7.91619 13.9287 7.98449 13.9447 8.05665C13.9608 8.12881 13.9624 8.20341 13.9496 8.2762ZM14.4746 5.8297C14.4518 5.95983 14.3839 6.07778 14.2828 6.16282C14.1817 6.24786 14.0539 6.29456 13.9218 6.2947C13.8889 6.2949 13.856 6.29214 13.8235 6.28645L8.8968 5.41795C8.75229 5.38957 8.62468 5.30565 8.54137 5.18421C8.45805 5.06278 8.42569 4.91351 8.45122 4.76848C8.47675 4.62344 8.55814 4.4942 8.67791 4.40851C8.79769 4.32282 8.94629 4.28753 9.0918 4.3102L14.0156 5.17495C14.0889 5.18744 14.159 5.21434 14.2218 5.2541C14.2846 5.29386 14.339 5.34568 14.3816 5.40656C14.4243 5.46745 14.4545 5.5362 14.4705 5.60883C14.4864 5.68146 14.4878 5.75653 14.4746 5.8297ZM11.665 10.4249C11.6421 10.5551 11.5741 10.6731 11.4729 10.7581C11.3717 10.8432 11.2437 10.8898 11.1115 10.8899C11.0788 10.8899 11.0462 10.8869 11.014 10.8809L7.93905 10.3387C7.86626 10.3259 7.79671 10.2989 7.73437 10.2592C7.67202 10.2195 7.61811 10.1679 7.57569 10.1074C7.53328 10.0469 7.5032 9.97862 7.48718 9.90647C7.47115 9.83433 7.4695 9.75974 7.4823 9.68695C7.4951 9.61416 7.52212 9.54461 7.5618 9.48227C7.60148 9.41992 7.65306 9.36601 7.71358 9.32359C7.83581 9.23794 7.98705 9.20434 8.13405 9.2302L11.209 9.7732C11.3559 9.79917 11.4865 9.88242 11.572 10.0046C11.6575 10.1269 11.691 10.2781 11.665 10.4249Z" fill="#414651"/>
</g>
<defs>
<clipPath id="clip0_18293_45903">
<rect width="18" height="18" fill="white"/>
</clipPath>
</defs>
</svg>
