<svg width="24" height="24" viewBox="0 0 24 24" fill="none" xmlns="http://www.w3.org/2000/svg">
<path d="M18 6.25H17.75V5C17.7501 4.90152 17.7307 4.80399 17.693 4.71303C17.6552 4.62207 17.5998 4.53948 17.53 4.47L15.53 2.47C15.4606 2.4002 15.378 2.34483 15.287 2.30708C15.196 2.26932 15.0985 2.24992 15 2.25H8.00004C7.53607 2.25053 7.09126 2.43507 6.76318 2.76315C6.43511 3.09122 6.25057 3.53603 6.25004 4V6.25H6.00004C5.49338 6.19128 4.98 6.24788 4.4983 6.41557C4.0166 6.58326 3.57906 6.8577 3.2184 7.21836C2.85774 7.57902 2.5833 8.01657 2.4156 8.49826C2.24791 8.97996 2.19131 9.49334 2.25004 10V15.5C2.25083 16.0965 2.48814 16.6683 2.90992 17.0901C3.33171 17.5119 3.90354 17.7492 4.50004 17.75H6.25004V20C6.25057 20.464 6.43511 20.9088 6.76318 21.2369C7.09126 21.5649 7.53607 21.7495 8.00004 21.75H16C16.464 21.7495 16.9088 21.5649 17.2369 21.2369C17.565 20.9088 17.7495 20.464 17.75 20V17.75H19.5C20.0965 17.7492 20.6684 17.5119 21.0901 17.0901C21.5119 16.6683 21.7492 16.0965 21.75 15.5V10C21.8088 9.49334 21.7522 8.97996 21.5845 8.49826C21.4168 8.01657 21.1423 7.57902 20.7817 7.21836C20.421 6.8577 19.9835 6.58326 19.5018 6.41557C19.0201 6.24788 18.5067 6.19128 18 6.25ZM7.75004 4C7.75004 3.9337 7.77638 3.87011 7.82326 3.82322C7.87014 3.77634 7.93373 3.75 8.00004 3.75H14.689L16.25 5.311V6.25H7.75004V4ZM16.25 20C16.25 20.0663 16.2237 20.1299 16.1768 20.1768C16.1299 20.2237 16.0663 20.25 16 20.25H8.00004C7.93373 20.25 7.87014 20.2237 7.82326 20.1768C7.77638 20.1299 7.75004 20.0663 7.75004 20V15.75H16.25V20ZM20.25 15.5C20.2498 15.6988 20.1707 15.8894 20.0301 16.03C19.8895 16.1706 19.6989 16.2497 19.5 16.25H17.75V15C17.75 14.8011 17.671 14.6103 17.5304 14.4697C17.3897 14.329 17.1989 14.25 17 14.25H7.00004C6.80112 14.25 6.61036 14.329 6.46971 14.4697C6.32905 14.6103 6.25004 14.8011 6.25004 15V16.25H4.50004C4.30121 16.2497 4.11059 16.1706 3.97 16.03C3.8294 15.8894 3.7503 15.6988 3.75004 15.5V10C3.75004 8.423 4.42304 7.75 6.00004 7.75H18C19.577 7.75 20.25 8.423 20.25 10V15.5ZM18 11C18 11.1978 17.9414 11.3911 17.8315 11.5556C17.7216 11.72 17.5654 11.8482 17.3827 11.9239C17.2 11.9996 16.9989 12.0194 16.8049 11.9808C16.611 11.9422 16.4328 11.847 16.2929 11.7071C16.1531 11.5673 16.0578 11.3891 16.0193 11.1951C15.9807 11.0011 16.0005 10.8 16.0762 10.6173C16.1518 10.4346 16.28 10.2784 16.4445 10.1685C16.6089 10.0586 16.8023 10 17 10C17.2653 10 17.5196 10.1054 17.7071 10.2929C17.8947 10.4804 18 10.7348 18 11Z" fill="#252B37"/>
</svg>
