<svg width="18" height="18" viewBox="0 0 18 18" fill="none" xmlns="http://www.w3.org/2000/svg">
<path d="M14.9835 11.6573C14.8523 10.7393 14.4195 9.873 13.764 9.21825L11.8125 7.26675V3.48C11.8125 2.30775 11.1922 1.6875 10.02 1.6875H4.98C3.80775 1.6875 3.1875 2.30775 3.1875 3.48V11.52C3.1875 12.6735 3.7905 13.2893 4.926 13.3088C5.85525 14.8928 6.38775 15.4335 7.1025 16.1475C7.212 16.257 7.356 16.3125 7.5 16.3125C7.644 16.3125 7.788 16.2578 7.8975 16.1475C8.11725 15.9278 8.11725 15.5715 7.8975 15.3517C7.296 14.7502 6.88275 14.3303 6.243 13.3118H10.02C10.4797 13.3118 10.8135 13.2105 11.064 13.0635L11.523 13.7977C11.688 14.061 12.0345 14.1412 12.2985 13.977C12.5618 13.812 12.642 13.4647 12.4777 13.2015L9.22575 7.998C9.072 7.752 9.108 7.437 9.31275 7.23225C9.55425 6.9915 9.9465 6.9915 10.188 7.23225L12.969 10.0132C13.4535 10.4977 13.7737 11.1383 13.8705 11.8163L14.4435 15.8287C14.484 16.1092 14.7247 16.3118 15 16.3118C15.0263 16.3118 15.0533 16.3103 15.0803 16.3065C15.3878 16.2623 15.6015 15.978 15.558 15.6697L14.9843 11.6565L14.9835 11.6573ZM8.517 6.43725C7.9395 7.01475 7.83825 7.902 8.271 8.59425L10.4677 12.1088C10.3837 12.1523 10.2532 12.1868 10.02 12.1868H4.98C4.437 12.1868 4.3125 12.0615 4.3125 11.5193V3.48C4.3125 2.937 4.43775 2.8125 4.98 2.8125H10.02C10.563 2.8125 10.6875 2.93775 10.6875 3.48V6.207C10.0193 5.793 9.0855 5.868 8.517 6.43725Z" fill="#414651"/>
</svg>
