<svg width="20" height="20" viewBox="0 0 20 20" fill="none" xmlns="http://www.w3.org/2000/svg">
<path d="M17.942 17.0582L14.7412 13.8574C15.9546 12.4162 16.5645 10.5621 16.4437 8.68205C16.3229 6.80198 15.4806 5.04122 14.0927 3.76728C12.7048 2.49333 10.8784 1.80463 8.99492 1.84494C7.1114 1.88524 5.31622 2.65143 3.98407 3.98358C2.65192 5.31573 1.88573 7.11091 1.84542 8.99443C1.80512 10.878 2.49381 12.7043 3.76776 14.0922C5.04171 15.4801 6.80247 16.3224 8.68254 16.4432C10.5626 16.5641 12.4167 15.9541 13.8579 14.7407L17.0587 17.9415C17.1772 18.0519 17.3339 18.112 17.4958 18.1092C17.6577 18.1063 17.8122 18.0407 17.9267 17.9262C18.0412 17.8117 18.1068 17.6572 18.1097 17.4953C18.1125 17.3334 18.0524 17.1767 17.942 17.0582ZM3.12536 9.16654C3.12536 7.97161 3.4797 6.80351 4.14356 5.80997C4.80743 4.81642 5.75101 4.04204 6.85498 3.58476C7.95895 3.12748 9.17373 3.00784 10.3457 3.24096C11.5177 3.47408 12.5942 4.04949 13.4391 4.89443C14.2841 5.73938 14.8595 6.8159 15.0926 7.98787C15.3257 9.15983 15.2061 10.3746 14.7488 11.4786C14.2915 12.5826 13.5171 13.5261 12.5236 14.19C11.53 14.8539 10.362 15.2082 9.16702 15.2082C7.56522 15.2064 6.02952 14.5693 4.89687 13.4367C3.76422 12.304 3.12712 10.7683 3.12536 9.16654Z" fill="#A4A7AE"/>
</svg>
