<svg width="24" height="24" viewBox="0 0 24 24" fill="none" xmlns="http://www.w3.org/2000/svg">
<path d="M10.27 21C10.2706 21.2476 10.1978 21.4899 10.0608 21.6962C9.92375 21.9025 9.72868 22.0636 9.50019 22.1591C9.27169 22.2546 9.02002 22.2802 8.77696 22.2328C8.5339 22.1853 8.31035 22.0669 8.13454 21.8925C7.95873 21.7181 7.83854 21.4955 7.78916 21.2528C7.73979 21.0101 7.76343 20.7583 7.8571 20.529C7.95078 20.2998 8.11028 20.1034 8.31548 19.9648C8.52067 19.8261 8.76236 19.7514 9.01 19.75H9.02C9.35152 19.75 9.66946 19.8817 9.90388 20.1161C10.1383 20.3505 10.27 20.6685 10.27 21ZM17.02 19.75H17.01C16.6776 19.7513 16.3593 19.8845 16.1249 20.1202C15.8906 20.356 15.7593 20.6751 15.76 21.0075C15.7607 21.3399 15.8932 21.6585 16.1285 21.8933C16.3638 22.1281 16.6826 22.26 17.015 22.26C17.3474 22.26 17.6662 22.1281 17.9015 21.8933C18.1368 21.6585 18.2693 21.3399 18.27 21.0075C18.2707 20.6751 18.1394 20.356 17.9051 20.1202C17.6707 19.8845 17.3524 19.7513 17.02 19.75ZM21.705 8.492L20.691 14.658C20.6658 15.1086 20.5485 15.5492 20.3463 15.9526C20.144 16.3561 19.8612 16.7137 19.5153 17.0035C19.1693 17.2933 18.7676 17.5091 18.335 17.6375C17.9024 17.7659 17.448 17.8042 17 17.75H8.734C8.07297 17.7472 7.43488 17.5074 6.9356 17.0742C6.43632 16.641 6.10897 16.043 6.013 15.389L4.5 4.823C4.45631 4.52627 4.30787 4.25497 4.08154 4.05817C3.85521 3.86137 3.56592 3.75205 3.266 3.75H3C2.80109 3.75 2.61032 3.67098 2.46967 3.53033C2.32902 3.38968 2.25 3.19891 2.25 3C2.25 2.80109 2.32902 2.61032 2.46967 2.46967C2.61032 2.32902 2.80109 2.25 3 2.25H3.266C3.92703 2.25281 4.56512 2.4926 5.0644 2.92582C5.56369 3.35905 5.89103 3.95697 5.987 4.611L6.079 5.25H19C19.4028 5.24995 19.8008 5.33839 20.1656 5.50909C20.5305 5.67979 20.8535 5.92856 21.1116 6.23783C21.3697 6.54709 21.5568 6.90929 21.6595 7.29881C21.7622 7.68833 21.7771 8.09566 21.705 8.492ZM19.959 7.2C19.8419 7.05924 19.6953 6.94597 19.5296 6.8682C19.3639 6.79043 19.1831 6.75008 19 6.75H6.293L7.493 15.177C7.53687 15.4749 7.68632 15.7472 7.91411 15.9441C8.1419 16.1411 8.43287 16.2496 8.734 16.25H17C18.6 16.25 18.986 15.65 19.213 14.403L20.227 8.236C20.2616 8.05424 20.2555 7.86708 20.2092 7.68795C20.1628 7.50883 20.0774 7.34219 19.959 7.2ZM14.446 9.636L12.31 11.772L11.51 10.972C11.3686 10.8353 11.1792 10.7596 10.9825 10.7612C10.7859 10.7629 10.5978 10.8416 10.4586 10.9806C10.3195 11.1196 10.2405 11.3077 10.2387 11.5043C10.2369 11.701 10.3124 11.8905 10.449 12.032L11.782 13.365C11.8517 13.4347 11.9344 13.49 12.0254 13.5277C12.1164 13.5654 12.214 13.5848 12.3125 13.5848C12.411 13.5848 12.5086 13.5654 12.5996 13.5277C12.6906 13.49 12.7733 13.4347 12.843 13.365L15.507 10.7C15.5767 10.6303 15.6319 10.5476 15.6696 10.4566C15.7073 10.3656 15.7267 10.268 15.7267 10.1695C15.7267 10.071 15.7073 9.97342 15.6696 9.8824C15.6319 9.79137 15.5767 9.70867 15.507 9.639C15.4373 9.56933 15.3546 9.51407 15.2636 9.47637C15.1726 9.43866 15.075 9.41926 14.9765 9.41926C14.878 9.41926 14.7804 9.43866 14.6894 9.47637C14.5984 9.51407 14.5157 9.56933 14.446 9.639V9.636Z" fill="#717680"/>
</svg>
