<svg width="20" height="20" viewBox="0 0 20 20" fill="none" xmlns="http://www.w3.org/2000/svg">
<path d="M18.1502 11.0163C18.2674 11.1335 18.3332 11.2925 18.3332 11.4583C18.3332 11.624 18.2674 11.783 18.1502 11.9002C18.033 12.0174 17.874 12.0833 17.7082 12.0833H13.125C12.9592 12.0833 12.8003 12.0174 12.6831 11.9002C12.5658 11.783 12.5 11.624 12.5 11.4583C12.5 11.2925 12.5658 11.1335 12.6831 11.0163C12.8003 10.8991 12.9592 10.8333 13.125 10.8333H17.7082C17.874 10.8333 18.033 10.8991 18.1502 11.0163Z" fill="#414651"/>
<path d="M18.1504 6.84982C18.2676 6.96704 18.3335 7.12601 18.3335 7.29177C18.3335 7.45753 18.2676 7.6165 18.1504 7.73371C18.0332 7.85092 17.8743 7.91677 17.7085 7.91677L11.4585 7.91675C11.2927 7.91675 11.1338 7.8509 11.0166 7.73369C10.8993 7.61648 10.8335 7.45751 10.8335 7.29175C10.8335 7.12599 10.8993 6.96702 11.0166 6.84981C11.1338 6.7326 11.2927 6.66675 11.4585 6.66675L17.7085 6.66677C17.8743 6.66677 18.0332 6.73261 18.1504 6.84982Z" fill="#414651"/>
<path d="M18.1429 2.68306C18.2601 2.80027 18.326 2.95924 18.326 3.125C18.326 3.29076 18.2601 3.44973 18.1429 3.56694C18.0257 3.68415 17.8667 3.75 17.701 3.75H9.80338C9.63762 3.75 9.47865 3.68415 9.36144 3.56694C9.24423 3.44973 9.17838 3.29076 9.17838 3.125C9.17838 2.95924 9.24423 2.80027 9.36144 2.68306C9.47865 2.56585 9.63762 2.5 9.80338 2.5H17.701C17.8667 2.5 18.0257 2.56585 18.1429 2.68306Z" fill="#414651"/>
<path d="M9.76758 13.9225L6.43424 17.2558C6.35683 17.3334 6.26487 17.395 6.16363 17.437C6.06239 17.479 5.95386 17.5007 5.84424 17.5007C5.73463 17.5007 5.6261 17.479 5.52485 17.437C5.42361 17.395 5.33165 17.3334 5.25424 17.2558L1.92091 13.9225C1.84132 13.8456 1.77783 13.7537 1.73416 13.652C1.69049 13.5503 1.6675 13.441 1.66654 13.3303C1.66557 13.2197 1.68666 13.11 1.72856 13.0075C1.77046 12.9051 1.83234 12.8121 1.91058 12.7338C1.98883 12.6556 2.08187 12.5937 2.18428 12.5518C2.2867 12.5099 2.39643 12.4888 2.50708 12.4898C2.61773 12.4908 2.72708 12.5137 2.82875 12.5574C2.93042 12.6011 3.02237 12.6646 3.09924 12.7442L5.01174 14.655V3.33333C5.01174 3.11232 5.09954 2.90036 5.25582 2.74408C5.4121 2.5878 5.62406 2.5 5.84508 2.5C6.06609 2.5 6.27805 2.5878 6.43433 2.74408C6.59061 2.90036 6.67841 3.11232 6.67841 3.33333V14.655L8.58924 12.7442C8.74641 12.5924 8.95691 12.5084 9.17541 12.5103C9.39391 12.5122 9.60292 12.5998 9.75743 12.7543C9.91193 12.9088 9.99957 13.1178 10.0015 13.3363C10.0034 13.5548 9.91938 13.7653 9.76758 13.9225Z" fill="#414651"/>
<path d="M18.3336 15.625C18.3336 15.4592 18.2677 15.3003 18.1505 15.1831C18.0333 15.0658 17.8743 15 17.7086 15H14.792C14.6262 15 14.4673 15.0658 14.3501 15.1831C14.2328 15.3003 14.167 15.4592 14.167 15.625C14.167 15.7908 14.2328 15.9497 14.3501 16.0669C14.4673 16.1842 14.6262 16.25 14.792 16.25H17.7086C17.8743 16.25 18.0333 16.1842 18.1505 16.0669C18.2677 15.9497 18.3336 15.7908 18.3336 15.625Z" fill="#414651"/>
</svg>
