<svg width="16" height="16" viewBox="0 0 16 16" fill="none" xmlns="http://www.w3.org/2000/svg">
<path fill-rule="evenodd" clip-rule="evenodd" d="M10.7263 6.06471C10.9216 6.26005 10.9216 6.57605 10.7263 6.77138L7.5623 9.93538C7.46496 10.0334 7.33697 10.082 7.20897 10.082C7.08163 10.082 6.95296 10.0334 6.85563 9.93538L5.27296 8.35338C5.07763 8.15805 5.07763 7.84205 5.27296 7.64671C5.4683 7.45138 5.7843 7.45138 5.97963 7.64671L7.20897 8.87471L10.0196 6.06471C10.215 5.86938 10.531 5.86938 10.7263 6.06471Z" fill="#039855"/>
<path fill-rule="evenodd" clip-rule="evenodd" d="M7.95719 1.20703C11.6332 1.20703 14.6239 4.1977 14.6239 7.8737C14.6239 11.5497 11.6332 14.5404 7.95719 14.5404C4.28119 14.5404 1.29053 11.5497 1.29053 7.8737C1.29053 4.1977 4.28119 1.20703 7.95719 1.20703ZM7.95719 2.20703C4.83253 2.20703 2.29053 4.74903 2.29053 7.8737C2.29053 10.9984 4.83253 13.5404 7.95719 13.5404C11.0819 13.5404 13.6239 10.9984 13.6239 7.8737C13.6239 4.74903 11.0819 2.20703 7.95719 2.20703Z" fill="#039855"/>
</svg>
