<svg width="20" height="20" viewBox="0 0 20 20" fill="none" xmlns="http://www.w3.org/2000/svg">
<path d="M18.3332 5.83333V9.295C18.3332 9.51601 18.2454 9.72798 18.0891 9.88426C17.9328 10.0405 17.7209 10.1283 17.4998 10.1283C17.2788 10.1283 17.0669 10.0405 16.9106 9.88426C16.7543 9.72798 16.6665 9.51601 16.6665 9.295V7.845L12.0115 12.5C11.699 12.8125 11.2751 12.988 10.8332 12.988C10.3912 12.988 9.9674 12.8125 9.65485 12.5L7.49985 10.345L3.08902 14.7558C2.93185 14.9076 2.72135 14.9916 2.50285 14.9897C2.28435 14.9878 2.07534 14.9002 1.92084 14.7457C1.76633 14.5912 1.67869 14.3822 1.67679 14.1637C1.67489 13.9452 1.75889 13.7347 1.91068 13.5775L6.32152 9.16667C6.63406 8.85421 7.05791 8.67869 7.49985 8.67869C7.94179 8.67869 8.36564 8.85421 8.67818 9.16667L10.8332 11.3217L15.4882 6.66667H14.0382C13.8172 6.66667 13.6052 6.57887 13.4489 6.42259C13.2926 6.26631 13.2049 6.05435 13.2049 5.83333C13.2049 5.61232 13.2926 5.40036 13.4489 5.24408C13.6052 5.0878 13.8172 5 14.0382 5H17.4998C17.7209 5 17.9328 5.0878 18.0891 5.24408C18.2454 5.40036 18.3332 5.61232 18.3332 5.83333Z" fill="#1570EF"/>
</svg>
