<svg width="18" height="18" viewBox="0 0 18 18" fill="none" xmlns="http://www.w3.org/2000/svg">
<path d="M9.00705 8.0625C8.37662 8.0625 7.76035 7.87556 7.23617 7.52531C6.71198 7.17506 6.30343 6.67724 6.06218 6.0948C5.82093 5.51237 5.7578 4.87147 5.88079 4.25315C6.00378 3.63484 6.30736 3.06688 6.75314 2.6211C7.19892 2.17532 7.76688 1.87174 8.3852 1.74875C9.00351 1.62576 9.64441 1.68888 10.2269 1.93014C10.8093 2.17139 11.3071 2.57994 11.6574 3.10412C12.0076 3.6283 12.1945 4.24457 12.1945 4.875C12.1936 5.72007 11.8574 6.53025 11.2599 7.12781C10.6623 7.72537 9.85212 8.06151 9.00705 8.0625ZM9.00705 2.8125C8.59912 2.8125 8.20036 2.93346 7.86118 3.1601C7.52201 3.38673 7.25765 3.70884 7.10155 4.08572C6.94544 4.46259 6.90459 4.87729 6.98418 5.27738C7.06376 5.67746 7.26019 6.04496 7.54864 6.33341C7.83708 6.62186 8.20459 6.81829 8.60467 6.89787C9.00476 6.97745 9.41946 6.93661 9.79633 6.7805C10.1732 6.6244 10.4953 6.36004 10.722 6.02086C10.9486 5.68169 11.0695 5.28293 11.0695 4.875C11.0691 4.32811 10.8517 3.80374 10.465 3.41703C10.0783 3.03032 9.55393 2.8129 9.00705 2.8125ZM12.0003 16.3125H6.0003C4.1853 16.3125 3.18555 15.3188 3.18555 13.5143C3.18555 11.5178 4.31505 9.1875 7.49805 9.1875H10.498C13.681 9.1875 14.8105 11.5178 14.8105 13.5143C14.8128 15.3188 13.813 16.3125 12.0003 16.3125ZM7.5003 10.3125C7.07204 10.2794 6.64169 10.3396 6.23897 10.489C5.83624 10.6384 5.47074 10.8734 5.16769 11.1778C4.86463 11.4822 4.63125 11.8488 4.48366 12.2521C4.33606 12.6555 4.27777 13.0861 4.3128 13.5143C4.3128 14.6873 4.8183 15.1875 6.00255 15.1875H12.0003C13.1845 15.1875 13.69 14.6873 13.69 13.5143C13.7251 13.0859 13.6668 12.6551 13.5191 12.2516C13.3713 11.848 13.1377 11.4813 12.8344 11.1769C12.5311 10.8724 12.1653 10.6375 11.7623 10.4882C11.3593 10.339 10.9287 10.279 10.5003 10.3125H7.5003Z" fill="#414651"/>
</svg>
