<svg width="20" height="20" viewBox="0 0 20 20" fill="none" xmlns="http://www.w3.org/2000/svg">
<path d="M15.6252 5.24922V4.99922C15.6741 4.577 15.627 4.14918 15.4872 3.74777C15.3475 3.34636 15.1188 2.98173 14.8182 2.68118C14.5177 2.38063 14.1531 2.15193 13.7516 2.01219C13.3502 1.87245 12.9224 1.82528 12.5002 1.87422H4.16686C3.55921 1.87466 2.97657 2.11624 2.54689 2.54592C2.11722 2.97559 1.87563 3.55823 1.87519 4.16588V14.9992C1.82626 15.4214 1.87342 15.8492 2.01317 16.2507C2.15291 16.6521 2.38161 17.0167 2.68216 17.3172C2.98271 17.6178 3.34733 17.8465 3.74875 17.9862C4.15016 18.126 4.57798 18.1732 5.00019 18.1242H15.0002C15.4224 18.1732 15.8502 18.126 16.2516 17.9862C16.6531 17.8465 17.0177 17.6178 17.3182 17.3172C17.6188 17.0167 17.8475 16.6521 17.9872 16.2507C18.127 15.8492 18.1741 15.4214 18.1252 14.9992V8.33255C18.1252 6.53672 17.2435 5.46005 15.6252 5.24922ZM16.8752 13.1267H13.7502C13.3634 13.1267 12.9925 12.9731 12.719 12.6996C12.4455 12.4261 12.2919 12.0552 12.2919 11.6684C12.2919 11.2816 12.4455 10.9107 12.719 10.6372C12.9925 10.3637 13.3634 10.21 13.7502 10.21H16.8752V13.1267ZM4.16686 3.12422H12.5002C13.8144 3.12422 14.3752 3.68505 14.3752 4.99922V5.20755H4.16686C3.89059 5.20755 3.62564 5.0978 3.43029 4.90245C3.23494 4.7071 3.12519 4.44215 3.12519 4.16588C3.12519 3.88962 3.23494 3.62466 3.43029 3.42931C3.62564 3.23396 3.89059 3.12422 4.16686 3.12422ZM15.0002 16.8742H5.00019C3.68603 16.8742 3.12519 16.3134 3.12519 14.9992V6.20672C3.44741 6.37228 3.80459 6.45829 4.16686 6.45755H15.0002C16.3144 6.45755 16.8752 7.01838 16.8752 8.33255V8.95755H13.7502C13.0319 8.95755 12.343 9.24289 11.8351 9.7508C11.3272 10.2587 11.0419 10.9476 11.0419 11.6659C11.0419 12.3842 11.3272 13.0731 11.8351 13.581C12.343 14.0889 13.0319 14.3742 13.7502 14.3742H16.8752V14.9992C16.8752 16.3134 16.3144 16.8742 15.0002 16.8742ZM14.1752 10.8325H14.1835C14.4042 10.8337 14.6154 10.9222 14.7708 11.0788C14.9263 11.2354 15.0132 11.4473 15.0127 11.668C15.0121 11.8886 14.9241 12.1 14.7679 12.2559C14.6117 12.4117 14.4 12.4992 14.1794 12.4992C13.9587 12.4992 13.7471 12.4117 13.5908 12.2559C13.4346 12.1 13.3466 11.8886 13.346 11.668C13.3455 11.4473 13.4325 11.2354 13.5879 11.0788C13.7433 10.9222 13.9545 10.8337 14.1752 10.8325Z" fill="#535862"/>
</svg>
